<svg xmlns="http://www.w3.org/2000/svg" viewBox="0 0 173.85 169.91"><defs><style>.cls-1{fill:#555c70;}</style></defs><g id="Layer_2" data-name="Layer 2"><g id="Layer_1-2" data-name="Layer 1"><path class="cls-1" d="M60.61,76.2c-.65-.35-1.86-1-2.31-.72-.13.09-.43.45-.3,1.89a3.57,3.57,0,0,1-.89,2.34,46,46,0,0,0-4.76,7.8,57.07,57.07,0,0,1-3.82,6.56c-.83,1.17-1.61,2.42-2.37,3.62-.61,1-1.23,2-1.87,2.91-.31.45-1.17,1.22-1.87,1.07-1.57-.36,0-9.6,0-9.69A33,33,0,0,1,44.36,86l.26-.65a7.22,7.22,0,0,0,.31-4.77c-.37-1.36-1.5-2.23-3.36-2.59-.31-.07-.38,0-.55.32a42.33,42.33,0,0,0-4.25,19.18,13.48,13.48,0,0,0,3,8.38c1.51,2,2.79,3,4,3s2.27-.69,3.61-2.24a30.68,30.68,0,0,0,2.48-4,39,39,0,0,1,3.19-5,.73.73,0,0,1,.85-.24,1.33,1.33,0,0,1,.69,1.27c-.12,2.28.8,4.09,3,5.85l.13.11c.59.48,1.06.83,1.33.66a3.28,3.28,0,0,1,.46-.25c.71-.36,1-.57.84-1.43A10,10,0,0,1,60,99.12a45.15,45.15,0,0,0,.57-4.49c.12-1.21.24-2.46.44-3.69l.09-.6a30.63,30.63,0,0,1,1.57-6.63C63.71,81.17,63.33,77.68,60.61,76.2Z"/><path class="cls-1" d="M129.06,54.39c-1.48,2.64-2.91,5.22-4.08,7.84-.75,1.67-.83,3-.24,4s1.74,1.32,3.4,1.32h.05c1.34,0,1.9-.34,2.07-1.44a24.3,24.3,0,0,1,2.18-6.27,29.89,29.89,0,0,0,1.87-4.86,4.48,4.48,0,0,1,.16-.52c.25-.68.36-1-.45-1.42C131.79,51.81,130.26,52.24,129.06,54.39Z"/><path class="cls-1" d="M107.15,98.93a4.64,4.64,0,0,0,2.46,3.59,2.88,2.88,0,0,0,2.74-.46c.71-1.86.26-5.64,0-7.49a44.37,44.37,0,0,1-.48-5.8q0-.69,0-1.38c0-2.59,0-5-1.44-7.32a8.83,8.83,0,0,0-5.62-3.71,1.38,1.38,0,0,0-1.16.32,41.87,41.87,0,0,0-7.15,10.08,1.7,1.7,0,0,0-.12.34c-.12.4-.35,1.23-1.22,1.09-.69-.11-1.14-1.21-1.22-1.75-.53-3.71-2.79-6.14-7.33-7.87a2.23,2.23,0,0,0-2.69.76,6.24,6.24,0,0,0-1.12,2.33,8.51,8.51,0,0,1-1.12,2.47,22.32,22.32,0,0,0-2.2,4.21c-.28.66-.57,1.33-.89,2l-.29.6-.6-.53a.65.65,0,0,1-.26-.37,6.86,6.86,0,0,1-.14-.79c-.1-.73-.14-1.48-.18-2.21-.15-2.86-.3-5.56-3.57-7-.2-.09-.4-.2-.6-.31a1.9,1.9,0,0,0-.87-.35.61.61,0,0,0-.28.07c-.35.17-.37.52-.31,1.23l0,.26c.18,2.94.22,5.92.26,8.8a128.43,128.43,0,0,0,.61,13,6.19,6.19,0,0,0,4,5.33,2.39,2.39,0,0,0,2.12.26c.5-.32.6-1.14.6-1.78,0-2.19.12-4.42,1.15-6a31,31,0,0,0,2.65-5.28c1.13-2.65,2.3-5.39,4.49-7.6l.85-.87V88c0,.87,0,1.75,0,2.63,0,2,0,4,0,6,0,.62-.09,1.24-.15,1.86-.23,2.31-.44,4.49,1.12,6.5a5.84,5.84,0,0,0,3.48,2.15.86.86,0,0,0,.68-.2,3.75,3.75,0,0,0,1.09-2.46,14.07,14.07,0,0,1,1.77-5.6c1-1.66,1.93-3.44,2.81-5.16A42.9,42.9,0,0,1,104.43,85a3.79,3.79,0,0,1,.69-.59l.28-.2.6-.48.19.74c0,.13.08.25.12.38a3.1,3.1,0,0,1,.21,1v.71A58.2,58.2,0,0,0,107.15,98.93Z"/><path class="cls-1" d="M123.39,94.55l-.19,2.27c0,.92,0,1.53,0,2.34s.06,1.71.05,3.23l.09.56c.07.43.14.83.18,1.24a4.57,4.57,0,0,0,1.59,3.29,4.3,4.3,0,0,0,3.33.76h.06a2.68,2.68,0,0,0,1.85-.7,1.81,1.81,0,0,0,.15-1.4,35.41,35.41,0,0,1-.75-8.28c.17-4,.47-8.08.76-12,.17-2.33.34-4.66.49-7,.24-3.89-.79-5.11-4.59-5.42-.83-.06-1.35,0-1.61.3a2.36,2.36,0,0,0-.31,1.8,67.63,67.63,0,0,1-.59,13.89C123.72,91.09,123.53,92.83,123.39,94.55Z"/><path class="cls-1" d="M144.07,33.11c-.7.54-1.17,1-1.24.94-.91-.71-1.75-1.5-2.62-2.27.26-.26.66-.79.76-.74C142,31.57,142.23,33.08,144.07,33.11Z"/><path class="cls-1" d="M146.37,37.59c-.77-.6-1.67-1.3-2.53-2,0,0,.37-.72.65-.79.6-.15,1.2.23.91.86C144.5,37.58,147.54,35.3,146.37,37.59Z"/><path class="cls-1" d="M115.44,13.25c.5,2.14,2.8.6,2.9,2.14,0,.2-.38.42-.59.63-.31-1.52-2.29-.42-2.68-1.71C115,14,115.3,13.6,115.44,13.25Z"/><path class="cls-1" d="M160.55,98.94l1,1.15a2.51,2.51,0,0,1-.62.42c-.08,0-.33-.2-.38-.35-.27-.93.93-.48,1.06-1.14-.14-.64-1.8-.77-.76-1.87.1-.11.71,0,.81.21C162.42,98.61,160.83,98.28,160.55,98.94Z"/><path class="cls-1" d="M66.36,12.46c-.73-.94-1.32,2.19-1.89,0a11.48,11.48,0,0,1,2.61-1.17c.08,0,.52.44.49.64C67.47,12.78,67,12.86,66.36,12.46Z"/><path class="cls-1" d="M136.71,28.87c-.18-1.57-1.74-1.25-2.1-2.28-.05-.16.65-.77.69-.74a24,24,0,0,1,2.27,1.9A13.48,13.48,0,0,1,136.71,28.87Z"/><path class="cls-1" d="M9.37,102c.67.1.68-1.54,1.44-.72s-.05.86-.62.63c-.22-.09-.24-.59-.42-.85-.06-.09-.36-.11-.48-.05-.44.23-.54,1.53-1.37.43-.08-.12.19-.74.36-.76C9.29,100.5,8.72,101.75,9.37,102Z"/><path class="cls-1" d="M105.28,156.62c-.62.38.3,1.83-.92,1.54-.92-.22-.93-.93.17-1.1.24,0,.53.34.82.49.07,0,.23,0,.32-.05.4-.23-.13-1.47,1-.89a.76.76,0,0,1,0,.69C105.75,158.11,105.94,156.43,105.28,156.62Z"/><path class="cls-1" d="M31.28,136.9c-.6.51-.93.91-1,.85-.87-.43-.62-2-2-2l.49-.58C29.42,135.84,29.6,137,31.28,136.9Z"/><path class="cls-1" d="M52.07,151.21c-.62,0-1.31-.46-1.8.3l0,.05c.64-.51-.68-1.95.87-2,1.09,0,.89.9.87,1.61Z"/><path class="cls-1" d="M11.57,67.61c-.43.36-.71.78-1,.77a1,1,0,0,1-.64-.77,1,1,0,0,1,.71-.72C10.88,66.86,11.17,67.28,11.57,67.61Z"/><path class="cls-1" d="M76.93,8.54c.34.44.73.73.72,1s-.52.69-.71.65a1.22,1.22,0,0,1-.75-.77C76.14,9.24,76.59,8.93,76.93,8.54Z"/><path class="cls-1" d="M19.07,50a3.94,3.94,0,0,1,.6,1.09c0,.15-.4.36-.62.54a3.08,3.08,0,0,1-.64-.84C18.37,50.59,18.75,50.32,19.07,50Z"/><path class="cls-1" d="M124.62,18.17c.34.48.7.75.72,1,0,.51-.3.94-.87.79-.31-.08-.79-.54-.75-.7C123.83,18.94,124.21,18.65,124.62,18.17Z"/><path class="cls-1" d="M127.61,21.41c.58.14,1.08-1.3,1.68-.13a1.05,1.05,0,0,1-.27,1c-.93.51-.9-.6-1.36-.91Z"/><path class="cls-1" d="M162.06,76.27c.28.58.59.94.58,1.28s-.45.49-.7.74c-.26-.32-.65-.62-.72-1S161.63,76.78,162.06,76.27Z"/><path class="cls-1" d="M101.11,10.21c-.47.31-.76.65-1,.62s-.76-.34-.81-.6.33-.58.52-.88Z"/><path class="cls-1" d="M111.37,12.64a6.23,6.23,0,0,1-1.29.77c-.11,0-.58-.5-.54-.57a2.47,2.47,0,0,1,.84-.94C110.5,11.84,110.9,12.28,111.37,12.64Z"/><path class="cls-1" d="M150.84,44.91c.27.85,2-.52,1.65,1-.28,1.25-.88.73-1.37,0-.22-.32.71-.93-.28-1Z"/><path class="cls-1" d="M43.42,147.58c-.46.35-.72.66-1,.71s-.67-.37-.65-.48c.09-.31.32-.75.57-.81S42.91,147.29,43.42,147.58Z"/><path class="cls-1" d="M149.82,42.6c-.33-.65-1.68.15-1.55-1.06a1.07,1.07,0,0,1,.75-.71c1.43,0,.2,1.32.78,1.8Z"/><path class="cls-1" d="M149.8,42.63c1.34.31,2.2.84,1,2.28h0a2.52,2.52,0,0,1-1-2.3Z"/><path class="cls-1" d="M156.62,52.92c-.54.24-1,.58-1.22.49a1.47,1.47,0,0,1-.79-.88c-.05-.13.46-.63.73-.65S155.86,52.28,156.62,52.92Z"/><path class="cls-1" d="M119.79,153c-.52.2-.88.46-1.13.39s-.52-.46-.78-.71c.22-.22.43-.58.66-.6S119,152.37,119.79,153Z"/><path class="cls-1" d="M20.5,126.45c-.28-.46-.56-.74-.6-1s.37-.39.58-.58c.24.26.57.49.67.8C21.2,125.77,20.82,126.06,20.5,126.45Z"/><path class="cls-1" d="M23.56,127.15c-.91.51-1.19.8-1.44.78s-.42-.39-.63-.6c.27-.22.51-.57.82-.63S22.92,126.9,23.56,127.15Z"/><path class="cls-1" d="M103.8,10.51c-.52.34-.84.69-1.18.71s-.73-.56-.68-.65a1.74,1.74,0,0,1,.84-.85C102.94,9.66,103.3,10.11,103.8,10.51Z"/><path class="cls-1" d="M53.88,153.38c.39.41.73.64.84,1,.05.13-.35.44-.54.67a3.6,3.6,0,0,1-.78-.78C53.33,154.1,53.65,153.77,53.88,153.38Z"/><path class="cls-1" d="M80.36,158.36c.37.41.81.7.77.9s-.44.58-.68.86c-.26-.23-.67-.44-.71-.71S80.05,158.84,80.36,158.36Z"/><path class="cls-1" d="M110.38,9.53c-.43.37-.67.71-1,.79s-.71-.34-.69-.45c.06-.32.28-.79.52-.86S109.86,9.28,110.38,9.53Z"/><path class="cls-1" d="M15.85,59.39c-.35-.46-.74-.76-.71-1s.45-.54.76-.64c.12,0,.58.4.56.59S16.14,58.91,15.85,59.39Z"/><path class="cls-1" d="M159.17,61.33c.34.4.77.7.73.91a1,1,0,0,1-.74.69,1.07,1.07,0,0,1-.76-.7C158.36,62,158.81,61.73,159.17,61.33Z"/><path class="cls-1" d="M83.69,8.93c-.4.36-.63.7-.94.8a.81.81,0,0,1-.7-.42c-.12-.5.11-1,.71-.94C83,8.38,83.27,8.66,83.69,8.93Z"/><path class="cls-1" d="M114.1,13.7c-.36.32-.64.73-.85.7a1,1,0,0,1-.74-.67c0-.24.38-.75.61-.75S113.68,13.36,114.1,13.7Z"/><path class="cls-1" d="M111.24,154.76c.35.42.68.66.74,1s-.35.64-.51.62a2.75,2.75,0,0,1-.89-.5Z"/><path class="cls-1" d="M134.34,24.74c-.5.3-.79.6-1.1.61s-.66-.48-.61-.58c.14-.31.42-.71.71-.77S133.88,24.38,134.34,24.74Z"/><path class="cls-1" d="M70.45,158.4c-.27-.52-.6-.87-.54-1.11s.5-.45.77-.66c.17.23.51.5.47.7S70.8,157.91,70.45,158.4Z"/><path class="cls-1" d="M38.61,142.54c-.56-.93-.91-1.27-.93-1.63,0-.21.62-.68.78-.61a1.43,1.43,0,0,1,.79.88C39.31,141.47,39,141.85,38.61,142.54Z"/><path class="cls-1" d="M40.54,144c-.48-.89-.8-1.22-.75-1.47s.51-.66.71-.62a1.06,1.06,0,0,1,.67.74C41.19,143,40.88,143.33,40.54,144Z"/><path class="cls-1" d="M35.87,142.4c.36.49.72.78.73,1.07s-.42.5-.65.76c-.23-.27-.61-.52-.66-.81S35.59,142.86,35.87,142.4Z"/><path class="cls-1" d="M44.12,144.51c-.61.45-1,.91-1.28.89s-.61-.54-.92-.83c.27-.25.53-.7.8-.7S43.46,144.18,44.12,144.51Z"/><path class="cls-1" d="M13.24,76.26c-.67.27-1,.56-1.37.52a1.07,1.07,0,0,1-.71-.72.94.94,0,0,1,.59-.75C12,75.27,12.31,75.64,13.24,76.26Z"/><path class="cls-1" d="M161.74,73.58c.37.42.78.69.78,1s-.42.54-.65.8c-.26-.24-.68-.45-.72-.72S161.46,74,161.74,73.58Z"/><path class="cls-1" d="M121.85,18.7c-.29-.49-.65-.82-.61-1.09s.48-.5.74-.74c.23.27.64.55.63.81S122.21,18.25,121.85,18.7Z"/><path class="cls-1" d="M13.46,70.59c-.4.44-.72,1-.87.92-.36-.11-.65-.49-1-.75.26-.24.49-.63.78-.68S13,70.35,13.46,70.59Z"/><path class="cls-1" d="M45.84,148.66c.78-.25-.24-1.72,1.06-1.56.24,0,.62.4.61.59-.07,1.13-1.2.48-1.69.95Z"/><path class="cls-1" d="M67.88,155.69c.3.5.59.79.6,1.08s-.36.44-.56.66c-.25-.23-.67-.44-.7-.7S67.55,156.17,67.88,155.69Z"/><path class="cls-1" d="M61.26,14c-.46.32-.79.71-1,.67s-.52-.51-.58-.83c0-.15.45-.56.66-.53S60.85,13.71,61.26,14Z"/><path class="cls-1" d="M162.24,81.13a3.86,3.86,0,0,1-.62-1.18c0-.15.41-.36.65-.55.2.3.51.57.58.9S162.54,80.74,162.24,81.13Z"/><path class="cls-1" d="M84.65,161.21c.26.35.61.68.55.79a3.22,3.22,0,0,1-.75.72c-.16-.24-.46-.5-.44-.72S84.35,161.55,84.65,161.21Z"/><path class="cls-1" d="M96.52,8c-.27-.44-.56-.73-.57-1s.49-.54.68-.49.53.44.78.67Z"/><path class="cls-1" d="M120.84,15.87c-.15.59.07,1.48-1,1.37-.23,0-.61-.46-.58-.66.15-.9.8-.9,1.51-.68Z"/><path class="cls-1" d="M123.66,150.53c-.5.26-.81.54-1.13.55s-.58-.49-.53-.64c.11-.31.46-.73.71-.73S123.24,150.15,123.66,150.53Z"/><path class="cls-1" d="M147.3,35.14c.32.77,1.7-.67,1.64.78a.9.9,0,0,1-.63.61c-1.15.11-.23-1.22-1-1.45Z"/><path class="cls-1" d="M78.1,160.19c-.34-.44-.66-.7-.72-1s.34-.44.53-.67c.24.25.59.46.69.75S78.35,159.75,78.1,160.19Z"/><path class="cls-1" d="M15.84,61.14c-.43.3-.74.63-.88.57-.31-.12-.52-.46-.78-.7.22-.19.47-.56.67-.54S15.39,60.82,15.84,61.14Z"/><path class="cls-1" d="M159.69,59.91c-.5.35-.81.73-1.11.72s-.47-.49-.7-.75c.28-.22.55-.59.85-.62S159.27,59.61,159.69,59.91Z"/><path class="cls-1" d="M109.11,11.71c-.43.4-.65.74-1,.83s-.69-.31-.67-.43a1.27,1.27,0,0,1,.5-.86C108.21,11.17,108.59,11.48,109.11,11.71Z"/><path class="cls-1" d="M26.6,127.07c.35.5.68.77.72,1.08a.66.66,0,0,1-.86.77c-.29-.07-.74-.53-.7-.73C25.83,127.83,26.22,127.54,26.6,127.07Z"/><path class="cls-1" d="M69.2,12.11c-.23-.44-.54-.78-.47-.93s.51-.48.78-.71c.18.24.55.53.5.7S69.58,11.7,69.2,12.11Z"/><path class="cls-1" d="M158.79,110.55c-.49.3-.78.59-1.09.63s-.62-.44-.58-.57c.09-.31.39-.75.63-.77S158.33,110.21,158.79,110.55Z"/><path class="cls-1" d="M18.05,52.73c.3.35.67.61.63.77a1.55,1.55,0,0,1-.64.83c-.09.06-.7-.38-.67-.52A3.9,3.9,0,0,1,18.05,52.73Z"/><path class="cls-1" d="M74.49,9c.31.56.6.87.61,1.19s-.4.56-.64.58-.59-.4-.58-.6S74.18,9.56,74.49,9Z"/><path class="cls-1" d="M97.58,8.94l.88,1c-.27.23-.51.56-.83.66-.15,0-.63-.35-.62-.52S97.31,9.42,97.58,8.94Z"/><path class="cls-1" d="M157.58,55c-.43.27-.85.67-1,.59-.32-.16-.49-.6-.73-.92.3-.19.63-.57.9-.53S157.23,54.61,157.58,55Z"/><path class="cls-1" d="M13.06,94c-.44.33-.72.69-.94.66s-.58-.39-.86-.6c.24-.25.46-.66.73-.71S12.56,93.67,13.06,94Z"/><path class="cls-1" d="M157.64,58.4c-.27-.36-.61-.62-.57-.81a.82.82,0,0,1,.64-.52c.21,0,.59.36.59.55S158,58.06,157.64,58.4Z"/><path class="cls-1" d="M72.21,9.33c.23.55.51.89.43,1.12a1.44,1.44,0,0,1-.74.74c-.13.05-.66-.39-.63-.5A6.53,6.53,0,0,1,72.21,9.33Z"/><path class="cls-1" d="M12.44,97.79c-.27-.52-.62-.9-.53-1.09s.55-.42.85-.62c.17.25.51.53.47.76S12.84,97.34,12.44,97.79Z"/><path class="cls-1" d="M159.11,52.22c-.38.27-.65.59-.85.55a.84.84,0,0,1-.56-.62c0-.18.38-.53.6-.54S158.75,51.93,159.11,52.22Z"/><path class="cls-1" d="M10.38,93.75c-.38.25-.63.54-.85.51s-.47-.32-.7-.5c.24-.24.45-.58.74-.68C9.71,93,10,93.43,10.38,93.75Z"/><path class="cls-1" d="M52.61,152.31c-.09.59.16,1.45-.89,1.29-.26,0-.69-.55-.65-.76.21-1.07,1.08-.23,1.6-.47Z"/><path class="cls-1" d="M155.38,50.35c-.43.38-.7.8-.93.78s-.57-.39-.7-.68c-.05-.11.33-.59.53-.6S154.87,50.1,155.38,50.35Z"/><path class="cls-1" d="M154.57,48c-.68.28-1.06.56-1.41.53s-.54-.44-.82-.68c.27-.25.51-.59.82-.7S153.64,47.46,154.57,48Z"/><path class="cls-1" d="M95,10.36c-.29-.36-.67-.74-.63-.79a7,7,0,0,1,.91-.81c.18.24.53.53.48.7S95.28,10,95,10.36Z"/><path class="cls-1" d="M105.72,10.14c.35.53.7.82.67,1.07a1.19,1.19,0,0,1-.61.81c-.15.07-.74-.37-.73-.53A5.13,5.13,0,0,1,105.72,10.14Z"/><path class="cls-1" d="M15.08,113.71c.28.41.58.68.56.91s-.42.56-.6.53a.87.87,0,0,1-.58-.61C14.45,114.33,14.78,114.09,15.08,113.71Z"/><path class="cls-1" d="M153.65,121.69c-.4.29-.66.62-.87.59a.94.94,0,0,1-.64-.6c0-.2.28-.48.45-.73Z"/><path class="cls-1" d="M24.83,126.75c-.32-.44-.66-.72-.7-1A.67.67,0,0,1,25,125a1.07,1.07,0,0,1,.6.85C25.6,126.08,25.19,126.35,24.83,126.75Z"/><path class="cls-1" d="M21,44c-.31-.38-.63-.6-.64-.84s.29-.47.46-.71c.23.19.59.36.64.59S21.17,43.53,21,44Z"/><path class="cls-1" d="M76.6,158.64c-.47.33-.78.7-1,.67s-.54-.44-.64-.75c0-.11.41-.56.63-.55S76.12,158.33,76.6,158.64Z"/><path class="cls-1" d="M11.86,90.72c.27.41.67.78.6,1-.13.34-.55.57-.84.85-.24-.34-.6-.66-.67-1C10.92,91.33,11.45,91.05,11.86,90.72Z"/><path class="cls-1" d="M79.8,10.42c-.35-.38-.79-.67-.75-.85a1.13,1.13,0,0,1,.71-.72c.2,0,.69.37.7.58S80.11,10,79.8,10.42Z"/><path class="cls-1" d="M52.06,151.2c.58.32,1.38-1,1.76.13s-.66.81-1.21,1l.06.06c-.05-.46.14-1-.59-1.16Z"/><path class="cls-1" d="M22.43,130.53c.26-.5-.3-1.44.77-1.47a.73.73,0,0,1,.56.47c.14,1.06-.93.59-1.33,1Z"/><path class="cls-1" d="M162.75,86c-.32-.29-.73-.53-.7-.68.07-.31.32-.73.58-.79s.55.31.83.5Z"/><path class="cls-1" d="M147.42,40.35l-.72-.81,1-.78c.17.23.52.52.46.69S147.71,40,147.42,40.35Z"/><path class="cls-1" d="M22.43,130.52c-1.15.09.55,1.66-.74,1.53-.87-.08-.76-.66-.24-1.2.28-.28,1,.81,1-.32Z"/><path class="cls-1" d="M162,83.66c-.19-.53-.41-.85-.38-1.14s.32-.49.49-.73l.84.61Z"/><path class="cls-1" d="M63.33,13.44a3.68,3.68,0,0,1-1,.56c-.1,0-.48-.51-.41-.66s.46-.47.71-.7Z"/><path class="cls-1" d="M63.15,154.46c.3.48.68.81.62,1s-.48.51-.74.76c-.22-.28-.6-.55-.62-.84S62.8,154.9,63.15,154.46Z"/><path class="cls-1" d="M85.67,9.11c-.45.25-.74.51-1,.52s-.52-.53-.46-.64a1.37,1.37,0,0,1,.76-.62C85.07,8.33,85.33,8.75,85.67,9.11Z"/><path class="cls-1" d="M31.14,133.12c.36.41.8.7.77.92s-.45.55-.7.82c-.23-.22-.65-.44-.66-.69S30.86,133.58,31.14,133.12Z"/><path class="cls-1" d="M83.4,158.44c.4.48.81.77.79,1s-.43.52-.68.78c-.22-.21-.59-.42-.61-.66S83.14,159,83.4,158.44Z"/><path class="cls-1" d="M12.53,79.07c-.41.32-.69.72-1,.71a1.1,1.1,0,0,1-.8-.65c-.13-.51.17-1,.76-.86C11.85,78.34,12.1,78.71,12.53,79.07Z"/><path class="cls-1" d="M87,160c-.33.14-.67.41-.9.34s-.68-.5-.65-.71.46-.48.72-.72Z"/><path class="cls-1" d="M34.05,136.21l-1,.73a2.72,2.72,0,0,1-.53-.88c0-.19.43-.63.54-.59A4.2,4.2,0,0,1,34.05,136.21Z"/><path class="cls-1" d="M33.23,139.22c-.35.31-.57.65-.8.66s-.47-.3-.7-.48c.18-.23.34-.62.57-.67S32.81,139,33.23,139.22Z"/><path class="cls-1" d="M36.12,140.92c-.28-.38-.63-.7-.58-.82a1.55,1.55,0,0,1,.75-.68c.1,0,.6.44.56.56C36.75,140.29,36.44,140.53,36.12,140.92Z"/><path class="cls-1" d="M134.54,143.54c-.35.24-.62.56-.82.52s-.43-.4-.63-.62l.8-.73Z"/><path class="cls-1" d="M57.53,13.88c.32.41.73.71.69.94s-.43.56-.67.83c-.26-.23-.71-.46-.71-.69S57.2,14.36,57.53,13.88Z"/><path class="cls-1" d="M120.8,15.9c.89-.41-.84-1.62.51-1.79.75-.1,1.31.27.73,1.19-.29.46-1.25-.55-1.2.57Z"/><path class="cls-1" d="M45.73,146.15c-.45.35-.81.8-1,.74-.34-.14-.59-.54-.87-.84.3-.2.58-.55.89-.57S45.31,145.83,45.73,146.15Z"/><path class="cls-1" d="M127.66,21.36c-.59-.22-1.6.15-1.52-1a1.05,1.05,0,0,1,.81-.64c1.2.11.45,1.1.66,1.67Z"/><path class="cls-1" d="M125.09,15.33c-.52.27-.83.55-1.12.54s-.65-.52-.6-.61c.16-.31.47-.69.76-.74S124.65,14.93,125.09,15.33Z"/><path class="cls-1" d="M49,19.54c-.3.33-.53.76-.72.74s-.55-.37-.82-.57c.21-.22.39-.59.62-.62S48.62,19.34,49,19.54Z"/><path class="cls-1" d="M107,9.2c-.28-.33-.64-.68-.6-.73a2.69,2.69,0,0,1,.81-.73c.07,0,.54.39.51.45A6.32,6.32,0,0,1,107,9.2Z"/><path class="cls-1" d="M12.05,74.37c-.3-.48-.69-.83-.63-1s.52-.51.8-.76c.21.26.61.54.59.8S12.42,73.92,12.05,74.37Z"/><path class="cls-1" d="M14.15,62.29c.28.44.57.72.59,1s-.36.42-.56.63c-.25-.26-.6-.48-.71-.79C13.42,63,13.81,62.7,14.15,62.29Z"/><path class="cls-1" d="M127.94,146.83c.21.48.44.77.43,1s-.31.47-.48.71l-.81-.62Z"/><path class="cls-1" d="M16.66,48.9c.28.43.55.68.54.91s-.31.44-.48.66c-.21-.21-.56-.4-.59-.63S16.39,49.35,16.66,48.9Z"/><path class="cls-1" d="M53.55,17.11c-.49.27-.81.59-1.1.57s-.39-.49-.59-.77c.31-.16.6-.44.91-.46S53.2,16.8,53.55,17.11Z"/><path class="cls-1" d="M163.16,90.11c-.42.29-.66.58-.92.6s-.42-.41-.46-.65.34-.48.51-.47S162.77,89.86,163.16,90.11Z"/><path class="cls-1" d="M165,90.93c-.33.39-.49.74-.73.81a.77.77,0,0,1-.64-.46.87.87,0,0,1,.46-.7C164.32,90.51,164.63,90.76,165,90.93Z"/><path class="cls-1" d="M11.78,85.6c.26.43.6.75.55,1s-.45.52-.7.77c-.26-.3-.64-.57-.73-.92C10.86,86.28,11.37,86,11.78,85.6Z"/><path class="cls-1" d="M9.7,97.74c-.22-.47-.45-.74-.4-.93a1.19,1.19,0,0,1,.61-.6c.08,0,.51.3.49.43S10.12,97.1,9.7,97.74Z"/><path class="cls-1" d="M166.06,82.37l-.94.82c-.18-.22-.52-.45-.51-.67a.85.85,0,0,1,.54-.61C165.37,81.87,165.65,82.15,166.06,82.37Z"/><path class="cls-1" d="M116.23,155.13c-.52-.9-.84-1.26-.77-1.37a2.93,2.93,0,0,1,.82-.63c.14.25.4.5.41.76A4.91,4.91,0,0,1,116.23,155.13Z"/><path class="cls-1" d="M8.65,97.87c-.65.4-.94.66-1,.62a1.89,1.89,0,0,1-.52-.7c0-.06.33-.4.48-.39A4.5,4.5,0,0,1,8.65,97.87Z"/><path class="cls-1" d="M9.49,99.19c.35-.28.55-.54.79-.59s.51.27.51.42a2,2,0,0,1-.37.75Z"/><path class="cls-1" d="M134,147.51c-.39.34-.6.66-.84.69s-.45-.3-.68-.47c.2-.24.35-.59.6-.68S133.6,147.28,134,147.51Z"/><path class="cls-1" d="M13.43,100.83c.35.43.74.7.76,1s-.49.64-.72.61a1.08,1.08,0,0,1-.74-.7C12.69,101.53,13.11,101.23,13.43,100.83Z"/><path class="cls-1" d="M163.27,103l-.88-1.23c.2-.12.46-.4.58-.35a1.06,1.06,0,0,1,.54.6C163.57,102.21,163.41,102.48,163.27,103Z"/><path class="cls-1" d="M163.51,77.31c.47-.21.76-.44,1-.39s.4.39.6.6c-.24.17-.48.48-.71.47S163.92,77.65,163.51,77.31Z"/><path class="cls-1" d="M12.32,104.53c-.31.2-.57.51-.78.47s-.42-.38-.63-.6l.75-.69Z"/><path class="cls-1" d="M109.61,156.37c-.43.26-.75.6-.92.53s-.51-.46-.76-.72c.24-.19.51-.57.7-.53S109.19,156,109.61,156.37Z"/><path class="cls-1" d="M100.49,160.06l.79.65-.64.76c-.23-.2-.58-.35-.65-.6S100.26,160.41,100.49,160.06Z"/><path class="cls-1" d="M130.3,146.68c-.31.26-.55.59-.74.56s-.44-.36-.65-.57l.7-.74Z"/><path class="cls-1" d="M105.06,8.31c-.36.27-.6.57-.83.57s-.51-.41-.48-.59a.87.87,0,0,1,.58-.6C104.49,7.66,104.73,8,105.06,8.31Z"/><path class="cls-1" d="M17.44,109.09c-.37.32-.58.65-.84.68s-.48-.28-.73-.44c.22-.27.4-.63.68-.77S17,108.84,17.44,109.09Z"/><path class="cls-1" d="M41.89,146.53c-.62.24-.94.49-1.21.44a1.52,1.52,0,0,1-.83-.61c-.06-.08.34-.68.49-.67C40.66,145.71,41,146,41.89,146.53Z"/><path class="cls-1" d="M55.25,157l-1.5.89c-.12-.21-.38-.5-.32-.61a1.09,1.09,0,0,1,.65-.5C54.32,156.7,54.61,156.85,55.25,157Z"/><path class="cls-1" d="M15.12,65.8c-.87.5-1.15.79-1.35.75s-.45-.38-.67-.59c.26-.22.49-.57.78-.62S14.48,65.54,15.12,65.8Z"/><path class="cls-1" d="M74.7,160.64c-.35.29-.58.63-.77.61a.83.83,0,0,1-.6-.56.84.84,0,0,1,.56-.6C74.08,160.05,74.33,160.37,74.7,160.64Z"/><path class="cls-1" d="M15.17,111.89c-.39.17-.71.44-.91.37s-.38-.47-.56-.72c.25-.14.53-.45.73-.4S14.86,111.56,15.17,111.89Z"/><path class="cls-1" d="M90.74,8.92c-.34.27-.58.59-.79.58s-.45-.33-.68-.51c.23-.25.42-.58.7-.71C90.08,8.23,90.39,8.62,90.74,8.92Z"/><path class="cls-1" d="M11.83,63.57c-.45-.81-.75-1.15-.68-1.27a2.86,2.86,0,0,1,.79-.66c.13.26.37.52.37.78S12.09,63,11.83,63.57Z"/><path class="cls-1" d="M17.58,114.63c-.29-.45-.67-.78-.62-1s.49-.5.76-.74c.21.27.61.54.61.8S17.93,114.22,17.58,114.63Z"/><path class="cls-1" d="M156.65,115.2c-.3.22-.53.49-.64.45a2.57,2.57,0,0,1-.68-.52l.51-.61Z"/><path class="cls-1" d="M19.54,116c-.47.26-.76.53-1.07.56-.16,0-.36-.39-.55-.6.27-.22.5-.55.81-.63C18.88,115.27,19.16,115.65,19.54,116Z"/><path class="cls-1" d="M155.14,118.23c-.3-.38-.66-.64-.63-.82s.39-.55.6-.82c.22.2.64.41.63.59S155.42,117.77,155.14,118.23Z"/><path class="cls-1" d="M39.78,145.3c-.68.27-1,.54-1.23.47a1.76,1.76,0,0,1-.75-.71c0-.06.29-.52.39-.5A10.4,10.4,0,0,1,39.78,145.3Z"/><path class="cls-1" d="M56,153.32c-.39-.37-.78-.57-.85-.86s.39-.67.61-.67a1.06,1.06,0,0,1,.84.55C56.63,152.55,56.24,152.9,56,153.32Z"/><path class="cls-1" d="M19.5,119l-.67-1a2.8,2.8,0,0,1,1-.55c.17,0,.61.5.56.65C20.23,118.36,19.88,118.59,19.5,119Z"/><path class="cls-1" d="M14.89,117.71c.17.57.34.84.29,1.05a1.36,1.36,0,0,1-.53.68c-.06,0-.54-.27-.53-.38A6.57,6.57,0,0,1,14.89,117.71Z"/><path class="cls-1" d="M102.58,158.27c-.34.29-.57.64-.77.62s-.48-.35-.72-.55a3.73,3.73,0,0,1,.77-.72C101.94,157.58,102.26,158,102.58,158.27Z"/><path class="cls-1" d="M22,46.81c-.46.16-.78.39-1,.31s-.4-.46-.59-.7c.26-.16.54-.46.77-.42S21.66,46.41,22,46.81Z"/><path class="cls-1" d="M137.14,25.61c-.29-.44-.6-.72-.63-1s.51-.6.62-.55a1.44,1.44,0,0,1,.69.75C137.87,24.94,137.47,25.23,137.14,25.61Z"/><path class="cls-1" d="M18.07,47.55c-.71-.61-.84-1.07-.35-1.55a.57.57,0,0,1,.55,0C18.82,46.53,18.39,46.94,18.07,47.55Z"/><path class="cls-1" d="M152,124.27c-.43.23-.72.51-.94.47s-.37-.41-.55-.63c.22-.16.45-.46.66-.45S151.66,124,152,124.27Z"/><path class="cls-1" d="M39.18,24.46a5.34,5.34,0,0,1,.8.93c0,.07-.42.55-.6.52a1,1,0,0,1-.65-.58C38.68,25.14,39,24.85,39.18,24.46Z"/><path class="cls-1" d="M116.7,10.64c.29.42.62.68.58.88a3,3,0,0,1-.54.91c-.21-.19-.62-.4-.61-.58A4,4,0,0,1,116.7,10.64Z"/><path class="cls-1" d="M72.22,160.17c-.43.25-.72.54-.92.49s-.37-.42-.55-.65c.22-.17.45-.47.67-.46S71.86,159.87,72.22,160.17Z"/><path class="cls-1" d="M33.58,142.39c-.26-.4-.55-.65-.53-.88s.37-.39.58-.59c.19.21.54.42.55.63S33.87,142,33.58,142.39Z"/><path class="cls-1" d="M58.21,12.18l-.77.66c-.17-.23-.48-.46-.48-.68s.34-.43.52-.64Z"/><path class="cls-1" d="M100.63,158.45c-1.08.63-1.39.91-1.7.93s-.56-.6-.5-.68a1.5,1.5,0,0,1,.85-.62C99.57,158,99.91,158.24,100.63,158.45Z"/><path class="cls-1" d="M50.27,151.51c-.16.55-.26,1.23-1.08,1-.2-.05-.47-.55-.39-.7.36-.78,1-.24,1.52-.23Z"/><path class="cls-1" d="M100.89,4.92c-.21-.4-.46-.67-.4-.81s.38-.42.59-.62c.14.18.43.4.4.55S101.17,4.53,100.89,4.92Z"/><path class="cls-1" d="M90,161.74a10.44,10.44,0,0,1-2,.74c-.13,0-.26-.38-.39-.58a2.83,2.83,0,0,1,.78-.42A7,7,0,0,1,90,161.74Z"/><path class="cls-1" d="M29.77,36.3l-1.05.7c-.19-.28-.49-.56-.52-.87s.45-.57.65-.54S29.37,36,29.77,36.3Z"/><path class="cls-1" d="M29.61,133.26c-.27-.33-.63-.63-.58-.76a3.1,3.1,0,0,1,.68-.83c.24.23.72.51.68.66C30.3,132.64,30,132.88,29.61,133.26Z"/><path class="cls-1" d="M28,133.55c-.41.3-.71.65-.85.59a1.51,1.51,0,0,1-.7-.71c0-.09.42-.58.58-.55S27.53,133.24,28,133.55Z"/><path class="cls-1" d="M144.17,29.8c-.38.28-.71.64-.8.58a2.14,2.14,0,0,1-.71-.78c0-.06.39-.52.49-.48A4.7,4.7,0,0,1,144.17,29.8Z"/><path class="cls-1" d="M140.28,29.8c-.45.38-.72.76-1,.77s-.57-.37-.7-.66c-.05-.1.34-.59.54-.59S139.75,29.56,140.28,29.8Z"/><path class="cls-1" d="M89.31,159.54c-.36.37-.58.78-.76.76s-.53-.35-.8-.55c.2-.2.38-.53.61-.58S88.87,159.35,89.31,159.54Z"/><path class="cls-1" d="M114,155.32c-.32-.34-.7-.57-.68-.76a.85.85,0,0,1,.61-.58c.21,0,.55.32.62.56S114.26,155,114,155.32Z"/><path class="cls-1" d="M163.46,60.45c-.21-.4-.45-.67-.4-.81s.4-.36.61-.54c.1.22.29.44.28.65S163.71,60.11,163.46,60.45Z"/><path class="cls-1" d="M104.21,160.41c-.33.35-.51.7-.72.72s-.47-.27-.71-.43c.17-.23.3-.58.53-.66S103.79,160.22,104.21,160.41Z"/><path class="cls-1" d="M9.73,88.18c-.37.34-.64.74-.79.7-.33-.07-.59-.39-.88-.61.19-.24.39-.66.58-.66S9.25,87.91,9.73,88.18Z"/><path class="cls-1" d="M163.32,87.68c-.33.34-.52.68-.77.75s-.59-.33-.6-.53a.88.88,0,0,1,.5-.68C162.64,87.16,162.94,87.46,163.32,87.68Z"/><path class="cls-1" d="M10.84,85.18c-.84.57-1.18.95-1.37.89s-.67-.49-.67-.76.45-.64.74-.67S10.21,84.9,10.84,85.18Z"/><path class="cls-1" d="M85.61,7.39c-.25-.33-.58-.57-.56-.79s.46-.61.56-.57a3.21,3.21,0,0,1,.76.68Z"/><path class="cls-1" d="M80.44,5.24c.39,1,.64,1.26.57,1.47s-.43.37-.67.55c-.16-.24-.43-.47-.43-.71A4.67,4.67,0,0,1,80.44,5.24Z"/><path class="cls-1" d="M94,164.61l-.47-.69a3,3,0,0,1,.75-.36.73.73,0,0,1,.29.55C94.53,164.28,94.24,164.4,94,164.61Z"/><path class="cls-1" d="M11.61,85.08c-.32-.43-.65-.68-.7-1s.4-.65.54-.62c.31.06.75.33.8.58S11.91,84.63,11.61,85.08Z"/><path class="cls-1" d="M33,32.27c-.36.33-.66.72-.78.68a3.25,3.25,0,0,1-.8-.7c.23-.16.45-.45.68-.46S32.55,32,33,32.27Z"/><path class="cls-1" d="M161.78,94.16c.25.46.56.8.49,1s-.49.49-.75.73c-.16-.24-.49-.51-.45-.7S161.45,94.59,161.78,94.16Z"/><path class="cls-1" d="M9.23,81.9c-.35-.34-.79-.65-.75-.74a1.75,1.75,0,0,1,.73-.77c.12,0,.66.37.64.51C9.8,81.21,9.51,81.48,9.23,81.9Z"/><path class="cls-1" d="M45.41,17.73c.24.3.54.58.5.66a2.62,2.62,0,0,1-.62.57c-.15-.19-.4-.39-.4-.59S45.17,18,45.41,17.73Z"/><path class="cls-1" d="M58.92,154c-.5.3-.79.59-1.12.62-.17,0-.39-.41-.59-.64.27-.21.53-.54.83-.6S58.51,153.64,58.92,154Z"/><path class="cls-1" d="M14.25,99.43c-.56.25-.87.5-1.18.5s-.46-.32-.68-.5c.24-.24.47-.66.74-.69S13.71,99.08,14.25,99.43Z"/><path class="cls-1" d="M147.35,35.08c-.44-.25-1.31-.15-.93-1.07a.72.72,0,0,1,.62-.31c.94.3.31.93.26,1.43Z"/><path class="cls-1" d="M50.1,16.41l-.57-.63a2.48,2.48,0,0,1,.67-.52c.13,0,.37.23.55.36Z"/><path class="cls-1" d="M119.67,155.64c-.39.16-.66.38-.81.31s-.35-.38-.52-.58c.22-.12.45-.34.65-.32S119.35,155.34,119.67,155.64Z"/><path class="cls-1" d="M10.25,72.11c-.29.31-.58.74-.68.7a3.27,3.27,0,0,1-.8-.66,2.88,2.88,0,0,1,.77-.68C9.65,71.42,10,71.83,10.25,72.11Z"/><path class="cls-1" d="M15.49,105.22a5.76,5.76,0,0,1,.47,1.4c0,.19-.37.57-.57.56a3,3,0,0,1-1-.42Z"/><path class="cls-1" d="M75.76,161.12a4.41,4.41,0,0,1,1.1-.45c.17,0,.52.29.5.41a2.53,2.53,0,0,1-.38.82Z"/><path class="cls-1" d="M48.07,151.51l-1,.62c-.15-.26-.47-.59-.4-.76a1.08,1.08,0,0,1,.74-.57C47.52,150.77,47.75,151.17,48.07,151.51Z"/><path class="cls-1" d="M164.2,70.57c-.25-.5-.53-.81-.48-1s.47-.32.73-.48c.12.21.36.45.33.63S164.48,70.16,164.2,70.57Z"/><path class="cls-1" d="M161.34,108c.23.39.55.7.48.85a1.08,1.08,0,0,1-.72.45c-.09,0-.42-.37-.38-.5S161.05,108.38,161.34,108Z"/><path class="cls-1" d="M97.22,159.12l-.72.78c-.24-.26-.59-.48-.68-.78s.38-.67.5-.65C96.61,158.54,96.85,158.84,97.22,159.12Z"/><path class="cls-1" d="M14.53,109.55c-.34.3-.54.6-.79.64s-.56-.34-.54-.51.3-.49.48-.73Z"/><path class="cls-1" d="M90.12,6c.42-.31.67-.62.85-.59s.44.36.66.55c-.17.17-.34.46-.51.47S90.61,6.21,90.12,6Z"/><path class="cls-1" d="M131.53,145.63c-.27-.32-.65-.59-.6-.74s.46-.64.62-.6.51.43.76.66Z"/><path class="cls-1" d="M87.44,9.86c-.26-.37-.55-.61-.53-.82s.32-.49.49-.73c.25.24.59.44.71.73C88.17,9.17,87.76,9.48,87.44,9.86Z"/><path class="cls-1" d="M64.69,8.56l.7.86a2.86,2.86,0,0,1-.75.53c-.1,0-.47-.34-.47-.51S64.44,9,64.69,8.56Z"/><path class="cls-1" d="M159.8,55.77c.37.44,1.46-.21,1.37.88a.74.74,0,0,1-.45.52c-1.16.12-.34-1.13-.94-1.42Z"/><path class="cls-1" d="M17.44,56l-.64.78c-.27-.23-.62-.41-.77-.69-.06-.12.33-.68.45-.66A2.88,2.88,0,0,1,17.44,56Z"/><path class="cls-1" d="M149,129.12c-.42.28-.77.62-.86.57a2.2,2.2,0,0,1-.66-.81s.38-.46.5-.42A4.68,4.68,0,0,1,149,129.12Z"/><path class="cls-1" d="M15.72,54.93c-.39.29-.64.63-.85.6s-.45-.36-.67-.57c.23-.2.43-.52.68-.56S15.34,54.67,15.72,54.93Z"/><path class="cls-1" d="M145.75,139.93c-.29-.4-.62-.67-.58-.86s.38-.45.64-.57c.07,0,.47.32.45.47A3.36,3.36,0,0,1,145.75,139.93Z"/><path class="cls-1" d="M159.78,55.75,159,54.57c.23-.08.51-.28.69-.21,1,.34-.35,1,.14,1.41Z"/><path class="cls-1" d="M154.87,119.69c-.57.25-.9.52-1.15.46a1.23,1.23,0,0,1-.72-.66c-.05-.15.35-.68.49-.66C153.79,118.87,154.06,119.16,154.87,119.69Z"/><path class="cls-1" d="M73.86,158.28l-.74.81c-.25-.26-.59-.49-.69-.8-.05-.15.37-.67.5-.64C73.23,157.71,73.48,158,73.86,158.28Z"/><path class="cls-1" d="M24.68,123.82c-.5.33-.76.62-1.07.67s-.47-.26-.72-.41c.25-.27.45-.64.75-.76S24.17,123.55,24.68,123.82Z"/><path class="cls-1" d="M157.82,124.53c-.33.21-.6.47-.69.41a1.16,1.16,0,0,1-.5-.63c0-.1.37-.48.43-.45A3.81,3.81,0,0,1,157.82,124.53Z"/><path class="cls-1" d="M27.49,137.82l.59.88c-.24.15-.47.4-.72.42s-.46-.36-.43-.52S27.23,138.15,27.49,137.82Z"/><path class="cls-1" d="M140.49,26.6c-.44.28-.68.54-1,.57s-.36-.3-.54-.47a2.77,2.77,0,0,1,.72-.54C139.86,26.11,140.1,26.36,140.49,26.6Z"/><path class="cls-1" d="M13,89.3a4.28,4.28,0,0,1-1.18.47c-.24,0-.49-.33-.73-.51l.8-1Z"/><path class="cls-1" d="M34.93,139.35c-.52-.91-.84-1.26-.76-1.39a1.48,1.48,0,0,1,.8-.63c.12,0,.55.41.53.62A5.44,5.44,0,0,1,34.93,139.35Z"/><path class="cls-1" d="M26.86,135.9c-1,.42-1.3.67-1.47.59s-.37-.45-.55-.69c.22-.15.45-.42.67-.42A5.08,5.08,0,0,1,26.86,135.9Z"/><path class="cls-1" d="M27.44,37.5c.19.48.42.78.35,1s-.41.39-.63.57c-.15-.25-.44-.51-.42-.74S27.09,37.88,27.44,37.5Z"/><path class="cls-1" d="M162,93.19c-.21-.44-.43-.7-.44-1s.38-.49.49-.45.63.36.62.54S162.29,92.78,162,93.19Z"/><path class="cls-1" d="M153.27,42.49l-.74.61-.61-.83c.24-.17.48-.47.73-.47S153,42.18,153.27,42.49Z"/><path class="cls-1" d="M23.42,44.55l-.72.79c-.24-.26-.56-.48-.66-.78-.05-.13.35-.57.57-.59S23.07,44.28,23.42,44.55Z"/><path class="cls-1" d="M18.19,111.14c-.38.26-.63.55-.82.52a1,1,0,0,1-.67-.53c-.05-.18.28-.47.43-.7Z"/><path class="cls-1" d="M69.66,159.89c-.34.2-.6.46-.72.4s-.4-.39-.6-.6c.17-.14.39-.44.49-.41A3.71,3.71,0,0,1,69.66,159.89Z"/><path class="cls-1" d="M17.05,123.61a5.87,5.87,0,0,1,.61.8c0,.06-.26.39-.31.37a4.65,4.65,0,0,1-.78-.45Z"/><path class="cls-1" d="M60.6,153.77c.29.41.63.69.59.89s-.39.59-.6.88c-.24-.23-.68-.47-.67-.7S60.28,154.24,60.6,153.77Z"/><path class="cls-1" d="M159.92,63c.25.61.5.92.44,1.16a1.39,1.39,0,0,1-.63.75c-.1,0-.63-.33-.62-.51S159.4,63.8,159.92,63Z"/><path class="cls-1" d="M48,149.37c.38-.34.6-.67.89-.74s.64.42.6.53a1.67,1.67,0,0,1-.65.81C48.77,150,48.41,149.66,48,149.37Z"/><path class="cls-1" d="M165.2,86.61a3,3,0,0,1-.45-.92c0-.15.38-.48.49-.44s.59.36.59.54S165.5,86.25,165.2,86.61Z"/><path class="cls-1" d="M43.52,21.17a5.17,5.17,0,0,1,.69,1.08c0,.16-.2.4-.32.61-.27-.22-.63-.4-.78-.68S43.3,21.68,43.52,21.17Z"/><path class="cls-1" d="M154,122.68c.28.41.58.66.57.89a.81.81,0,0,1-.58.54c-.18,0-.52-.35-.53-.56S153.71,123.08,154,122.68Z"/><path class="cls-1" d="M90.89,160.65c-.29-.48-.6-.76-.55-1s.41-.41.64-.61c.14.18.41.38.39.55A3.71,3.71,0,0,1,90.89,160.65Z"/><path class="cls-1" d="M55.7,15.78l-.85.67a2.79,2.79,0,0,1-.55-.83c0-.12.44-.49.68-.48S55.4,15.5,55.7,15.78Z"/><path class="cls-1" d="M77.45,7.12c-.26-.4-.62-.74-.55-.87.13-.28.49-.45.76-.67.15.24.45.5.43.73S77.75,6.76,77.45,7.12Z"/><path class="cls-1" d="M129.76,18.23c-.4.27-.65.57-.89.56a.78.78,0,0,1-.47-.63.82.82,0,0,1,.6-.54C129.21,17.61,129.43,18,129.76,18.23Z"/><path class="cls-1" d="M162.5,62.07c-.36.32-.6.69-.8.67a.92.92,0,0,1-.6-.61c0-.18.32-.58.53-.6S162.11,61.81,162.5,62.07Z"/><path class="cls-1" d="M116.68,8.32c.36.4.69.61.71.85s-.3.48-.53.59-.49-.26-.51-.43S116.51,8.8,116.68,8.32Z"/><path class="cls-1" d="M99.71,7.18c-.39.22-.63.45-.87.46s-.34-.31-.51-.47A2.41,2.41,0,0,1,99,6.59C99.11,6.55,99.36,6.88,99.71,7.18Z"/><path class="cls-1" d="M51.22,18.76c-.44.21-.77.49-.93.41s-.35-.48-.42-.76c0-.08.4-.38.52-.33A3.75,3.75,0,0,1,51.22,18.76Z"/><path class="cls-1" d="M18.16,120.06c.27.35.59.59.59.82s-.35.43-.55.64c-.2-.21-.54-.42-.57-.66S17.92,120.4,18.16,120.06Z"/><path class="cls-1" d="M120.67,150.74c.22.41.48.68.45.92s-.36.38-.55.56c-.19-.23-.5-.45-.52-.7S120.37,151.09,120.67,150.74Z"/><path class="cls-1" d="M161,69l.75.93c-.24.16-.51.48-.71.45a1,1,0,0,1-.64-.62C160.33,69.63,160.69,69.36,161,69Z"/><path class="cls-1" d="M64.56,158c-.4.3-.71.68-.86.63s-.5-.47-.75-.72c.25-.16.5-.45.75-.46S64.17,157.76,64.56,158Z"/><path class="cls-1" d="M21.9,120.31c-.43.27-.71.55-1,.58s-.39-.39-.59-.6c.26-.22.5-.55.81-.62C21.26,119.62,21.53,120,21.9,120.31Z"/><path class="cls-1" d="M138.1,22.93l-.5-.69a6.55,6.55,0,0,1,.88-.52c.05,0,.4.43.35.51A3.29,3.29,0,0,1,138.1,22.93Z"/><path class="cls-1" d="M43.83,19.41c-.32.29-.54.65-.75.64s-.47-.32-.7-.5c.18-.23.34-.61.54-.64S43.43,19.17,43.83,19.41Z"/><path class="cls-1" d="M74.76,6.63c.34.32.73.51.74.74A.84.84,0,0,1,75,8a.87.87,0,0,1-.68-.5C74.23,7.32,74.53,7,74.76,6.63Z"/><path class="cls-1" d="M157.7,118.94c-.84.54-1.1.85-1.3.81a.77.77,0,0,1-.47-.64.85.85,0,0,1,.58-.58C156.8,118.5,157.11,118.72,157.7,118.94Z"/><path class="cls-1" d="M28.41,130.61a3.8,3.8,0,0,1-.95.77c-.12,0-.61-.43-.57-.56a1.38,1.38,0,0,1,.64-.76C27.67,130,28,130.34,28.41,130.61Z"/><path class="cls-1" d="M8.91,106.07c.23.29.54.53.5.67s-.35.4-.54.6c-.15-.19-.4-.39-.41-.58S8.71,106.36,8.91,106.07Z"/><path class="cls-1" d="M131.28,22.24c.22.46.49.79.41,1s-.49.46-.75.69c-.18-.23-.54-.53-.49-.68S130.89,22.67,131.28,22.24Z"/><path class="cls-1" d="M90.85,162.56c-.34.26-.6.6-.75.55a.94.94,0,0,1-.58-.62c0-.16.35-.56.53-.55S90.49,162.26,90.85,162.56Z"/><path class="cls-1" d="M160.73,72.13c.41-.21.7-.47.9-.42s.4.4.6.61c-.23.18-.47.51-.7.5S161.1,72.47,160.73,72.13Z"/><path class="cls-1" d="M65.75,154.89c.27.49.55.79.56,1.09s-.39.41-.6.61a3.14,3.14,0,0,1-.6-.9C65.06,155.54,65.43,155.28,65.75,154.89Z"/><path class="cls-1" d="M114.81,160.34c-.33.27-.55.55-.68.52s-.42-.32-.63-.5c.18-.14.35-.38.54-.4S114.44,160.15,114.81,160.34Z"/><path class="cls-1" d="M14.34,105.58c-.56-.84-.88-1.13-.83-1.29a.86.86,0,0,1,.66-.52c.21,0,.52.38.55.63S14.55,105,14.34,105.58Z"/><path class="cls-1" d="M130.44,147.63c.35.81.58,1.12.51,1.22a2.64,2.64,0,0,1-.71.55,1.62,1.62,0,0,1-.23-.67A4.69,4.69,0,0,1,130.44,147.63Z"/><path class="cls-1" d="M32.68,143c.24.54.47.81.41,1s-.37.44-.57.65c-.13-.18-.37-.35-.38-.54S32.32,143.74,32.68,143Z"/><path class="cls-1" d="M165.86,103c.28.36.53.55.54.75s-.28.36-.43.53c-.17-.16-.43-.3-.47-.49S165.67,103.42,165.86,103Z"/><path class="cls-1" d="M57,155.89c-.43.26-.68.53-.92.52s-.52-.48-.47-.57a1.14,1.14,0,0,1,.68-.56C56.46,155.25,56.69,155.6,57,155.89Z"/><path class="cls-1" d="M114,156.56a2.77,2.77,0,0,1,.29.91c0,.2-.3.56-.38.54a2.39,2.39,0,0,1-.67-.45Z"/><path class="cls-1" d="M103.4,4c.26.32.57.58.52.67s-.38.36-.58.53c-.13-.19-.34-.37-.35-.57S103.2,4.31,103.4,4Z"/><path class="cls-1" d="M164,72.81c-.29-.33-.54-.5-.55-.67s.22-.38.35-.57c.17.13.45.24.5.41S164.14,72.39,164,72.81Z"/><path class="cls-1" d="M112.49,9.88c-.37.29-.6.61-.82.6a.8.8,0,0,1-.58-.56.83.83,0,0,1,.54-.63C111.85,9.27,112.1,9.6,112.49,9.88Z"/><path class="cls-1" d="M54,160.78c-.49.18-.7.35-.85.3a2.06,2.06,0,0,1-.59-.45c.12-.14.25-.4.36-.39A4.8,4.8,0,0,1,54,160.78Z"/><path class="cls-1" d="M161.76,59.24c-.31.29-.49.58-.65.57a.66.66,0,0,1-.49-.45c0-.17.25-.45.44-.5S161.43,59.05,161.76,59.24Z"/><path class="cls-1" d="M18,127.89c-.27-.36-.53-.57-.58-.82s.35-.5.48-.48.48.32.72.49Z"/><path class="cls-1" d="M7.19,60.85c-.26-.47-.49-.7-.45-.85s.32-.33.5-.5c.11.14.3.28.3.42A3.77,3.77,0,0,1,7.19,60.85Z"/><path class="cls-1" d="M41.48,22.22c.31.8.53,1.11.51,1.4s-.3.49-.46.74c-.23-.18-.57-.33-.64-.56S41.06,23.29,41.48,22.22Z"/><path class="cls-1" d="M25.8,131.79c-.35.26-.6.56-.72.52a1.23,1.23,0,0,1-.58-.59c0-.07.32-.48.44-.46A3.22,3.22,0,0,1,25.8,131.79Z"/><path class="cls-1" d="M31.16,34.36l-.86.48c-.11-.22-.37-.51-.3-.64s.44-.38.67-.55Z"/><path class="cls-1" d="M61.46,9.65l.77,1-.76.51c-.12-.2-.32-.41-.32-.62A3.08,3.08,0,0,1,61.46,9.65Z"/><path class="cls-1" d="M131.12,152c-.45.15-.71.33-.86.26s-.26-.37-.29-.58.32-.3.43-.27S130.75,151.72,131.12,152Z"/><path class="cls-1" d="M157.48,50.34c-.34-.4-.69-.64-.66-.83s.34-.47.59-.61c.06,0,.47.29.47.46S157.68,49.88,157.48,50.34Z"/><path class="cls-1" d="M89.59,164.9c-.32.22-.55.47-.67.43a.69.69,0,0,1-.4-.51c0-.14.28-.4.45-.41S89.29,164.65,89.59,164.9Z"/><path class="cls-1" d="M10.6,69.38c-.29.36-.45.74-.64.75s-.48-.28-.72-.44c.17-.24.3-.57.54-.7S10.23,69.19,10.6,69.38Z"/><path class="cls-1" d="M46.2,21.82a3.55,3.55,0,0,1-.62-.91c0-.12.3-.33.47-.51.2.21.48.39.56.64S46.41,21.44,46.2,21.82Z"/><path class="cls-1" d="M150.54,37.78c-.34.32-.61.7-.73.66a1.25,1.25,0,0,1-.61-.63c0-.09.29-.51.43-.5S150.12,37.55,150.54,37.78Z"/><path class="cls-1" d="M109.72,158.39c-.71.5-1,.82-1.17.79s-.44-.36-.65-.57c.24-.23.45-.59.74-.67S109.2,158.16,109.72,158.39Z"/><path class="cls-1" d="M8.06,67.58a3.29,3.29,0,0,1,.49,1c0,.14-.36.49-.47.45-.26-.08-.64-.33-.65-.52S7.75,68,8.06,67.58Z"/><path class="cls-1" d="M114.67,11.37c-.26.26-.47.6-.57.57a1.42,1.42,0,0,1-.69-.52c0-.07.27-.56.35-.54A4.4,4.4,0,0,1,114.67,11.37Z"/><path class="cls-1" d="M155.42,44.68c-.4.32-.63.66-.85.65s-.44-.35-.67-.55c.21-.19.4-.51.63-.54S155,44.46,155.42,44.68Z"/><path class="cls-1" d="M6.86,88c-.31-.41-.56-.62-.59-.85s.28-.59.37-.58c.26,0,.64.24.68.43S7.1,87.53,6.86,88Z"/><path class="cls-1" d="M39.11,148.36c.21.31.46.54.42.67a.72.72,0,0,1-.53.43c-.13,0-.42-.3-.41-.47S38.85,148.65,39.11,148.36Z"/><path class="cls-1" d="M24.71,38.36c-.43.25-.67.49-.92.5s-.33-.33-.5-.52a2.41,2.41,0,0,1,.72-.47C24.15,37.83,24.36,38.1,24.71,38.36Z"/><path class="cls-1" d="M165.71,65.75c-.25-.32-.46-.48-.51-.69s.24-.4.37-.4.39.19.59.3Z"/><path class="cls-1" d="M34.48,145.05c.19.46.38.71.35.93a.69.69,0,0,1-.43.5.64.64,0,0,1-.52-.39C33.84,145.92,34.08,145.7,34.48,145.05Z"/><path class="cls-1" d="M160.76,67.91c-.56-.76-.93-1.1-.87-1.23a1.16,1.16,0,0,1,.76-.55c.12,0,.46.41.48.67S161,67.39,160.76,67.91Z"/><path class="cls-1" d="M163,67.58c-.3-.33-.69-.61-.65-.76s.42-.5.65-.75c.18.21.51.42.51.63S163.23,67.21,163,67.58Z"/><path class="cls-1" d="M12.15,64.79c-.37.34-.57.62-.83.71-.11,0-.54-.36-.51-.44a1.33,1.33,0,0,1,.56-.65C11.49,64.35,11.77,64.6,12.15,64.79Z"/><path class="cls-1" d="M162.66,65.43c-.35-.39-.61-.58-.71-.84s.23-.54.31-.53c.27,0,.65.17.74.38S162.84,65,162.66,65.43Z"/><path class="cls-1" d="M133.19,22.86c-.49-.91-.81-1.26-.73-1.41s.51-.41.79-.6c.14.26.39.51.39.77A4.51,4.51,0,0,1,133.19,22.86Z"/><path class="cls-1" d="M115.07,8.23c-.87.42-1.13.65-1.24.59a1.28,1.28,0,0,1-.53-.64c0-.08.33-.44.5-.43A5.32,5.32,0,0,1,115.07,8.23Z"/><path class="cls-1" d="M111.47,160.59c-.34.28-.52.55-.67.53s-.35-.29-.42-.49.21-.37.33-.37S111.09,160.42,111.47,160.59Z"/><path class="cls-1" d="M87.06,3c.29.27.57.42.6.6s-.27.45-.43.46a.71.71,0,0,1-.55-.38C86.63,3.59,86.88,3.35,87.06,3Z"/><path class="cls-1" d="M157.66,113c-.32.3-.54.64-.72.62a.81.81,0,0,1-.62-.52.78.78,0,0,1,.47-.63C157,112.46,157.27,112.76,157.66,113Z"/><path class="cls-1" d="M139.71,139.32c-.34-.36-.62-.55-.7-.81s.28-.36.44-.55a2.49,2.49,0,0,1,.64.61C140.15,138.68,139.91,139,139.71,139.32Z"/><path class="cls-1" d="M10.49,62.05c-.47.17-.74.37-.94.32s-.43-.34-.64-.52c.19-.17.36-.43.57-.47S9.84,61.6,10.49,62.05Z"/><path class="cls-1" d="M159.33,107.86c-.39.28-.6.53-.85.56s-.54-.31-.51-.41c.06-.27.25-.65.46-.7S158.91,107.58,159.33,107.86Z"/><path class="cls-1" d="M80.51,164.93c-.24-.33-.53-.61-.48-.69a2.42,2.42,0,0,1,.63-.55c.11.2.32.4.31.6S80.73,164.64,80.51,164.93Z"/><path class="cls-1" d="M25.32,34.24c.22.75.39,1,.34,1.25s-.28.48-.44.71c-.17-.17-.43-.32-.47-.52S24.9,35.25,25.32,34.24Z"/><path class="cls-1" d="M119.8,12.84c-.43.2-.71.45-.92.4s-.53-.42-.51-.62a.77.77,0,0,1,.61-.51C119.22,12.14,119.42,12.48,119.8,12.84Z"/><path class="cls-1" d="M159.15,104.82c.33.37.67.58.67.8s-.31.46-.49.7c-.21-.2-.55-.36-.61-.59S158.94,105.24,159.15,104.82Z"/><path class="cls-1" d="M146.67,129.91c.26.42.58.72.53.9s-.45.4-.72.45c-.11,0-.44-.37-.41-.52S146.38,130.28,146.67,129.91Z"/><path class="cls-1" d="M93.18,9.46l-.75.67a3.17,3.17,0,0,1-.62-.82c0-.09.41-.53.6-.51S92.86,9.16,93.18,9.46Z"/><path class="cls-1" d="M135.86,23.39c-.41.16-.76.38-.82.32a5.5,5.5,0,0,1-.55-.91c.23-.07.52-.28.66-.2S135.55,23,135.86,23.39Z"/><path class="cls-1" d="M8.15,73c-.39.33-.64.7-.81.66A1.11,1.11,0,0,1,6.75,73c0-.09.29-.5.43-.49S7.7,72.77,8.15,73Z"/><path class="cls-1" d="M102.82,163.66c-.28-.33-.55-.5-.56-.69s.26-.37.4-.56c.19.15.48.28.53.46S103,163.29,102.82,163.66Z"/><path class="cls-1" d="M131.35,19.7c-.42.17-.75.39-.84.32a1.3,1.3,0,0,1-.41-.74c0-.08.44-.38.56-.33S131.05,19.35,131.35,19.7Z"/><path class="cls-1" d="M20.54,128.48c.22.32.5.65.46.69a3.64,3.64,0,0,1-.7.52c-.1-.2-.3-.42-.28-.6S20.3,128.75,20.54,128.48Z"/><path class="cls-1" d="M162.84,104.2c-.34.19-.57.41-.74.38a.63.63,0,0,1-.38-.52.68.68,0,0,1,.51-.4C162.39,103.66,162.56,103.94,162.84,104.2Z"/><path class="cls-1" d="M152,128.59a3.42,3.42,0,0,1-.81.67c-.1,0-.51-.35-.48-.4a1.54,1.54,0,0,1,.55-.68C151.34,128.12,151.63,128.39,152,128.59Z"/><path class="cls-1" d="M153.87,129.2c-.19-.37-.44-.64-.38-.76a2.73,2.73,0,0,1,.65-.61c.15.19.47.43.42.55S154.2,128.84,153.87,129.2Z"/><path class="cls-1" d="M11.83,55.8c-.29-.26-.63-.48-.6-.55a3.05,3.05,0,0,1,.51-.7c.17.18.43.34.48.54S12,55.48,11.83,55.8Z"/><path class="cls-1" d="M6.85,75.55c-.27.25-.49.56-.59.52a1.14,1.14,0,0,1-.68-.53c0-.12.29-.41.46-.63Z"/><path class="cls-1" d="M47.22,154.79c-.21-.55-.41-.8-.37-1s.3-.42.47-.63c.16.16.42.31.45.49S47.59,154,47.22,154.79Z"/><path class="cls-1" d="M24.79,40.61a4.28,4.28,0,0,1,.76-.68c.06,0,.48.34.45.44a1.31,1.31,0,0,1-.51.67C25.41,41.1,25.11,40.82,24.79,40.61Z"/><path class="cls-1" d="M70.05,7.86a3.34,3.34,0,0,1-.86.53c-.1,0-.44-.33-.41-.46s.29-.46.44-.69Z"/><path class="cls-1" d="M16.66,118.26c.3.33.6.52.58.67s-.27.44-.42.66c-.16-.17-.4-.32-.44-.52S16.51,118.66,16.66,118.26Z"/><path class="cls-1" d="M56.47,158.13c.25.4.49.64.52.9s-.32.32-.5.49a3,3,0,0,1-.53-.75C55.92,158.66,56.22,158.43,56.47,158.13Z"/><path class="cls-1" d="M79.23,161.35c.25.37.51.58.48.73a2.53,2.53,0,0,1-.48.69c-.17-.16-.49-.33-.48-.49S79,161.78,79.23,161.35Z"/><path class="cls-1" d="M160.08,101.73c.28.42.59.68.56.91s-.41.41-.67.47c-.11,0-.46-.34-.44-.5S159.81,102.13,160.08,101.73Z"/><path class="cls-1" d="M42.21,151.67a3.09,3.09,0,0,1-.41-.93c0-.14.29-.3.46-.46a2.41,2.41,0,0,1,.53.69C42.83,151.1,42.51,151.33,42.21,151.67Z"/><path class="cls-1" d="M73,7.1l-.63.68c-.16-.17-.37-.31-.45-.51s.17-.39.29-.41A2.48,2.48,0,0,1,73,7.1Z"/><path class="cls-1" d="M137.75,146.05c.17.37.39.64.33.76a2.69,2.69,0,0,1-.62.59c-.16-.17-.49-.43-.45-.52A4.05,4.05,0,0,1,137.75,146.05Z"/><path class="cls-1" d="M16.13,52.45c-.44.13-.65.26-.84.23s-.24-.27-.36-.41c.18-.14.35-.39.54-.39S15.79,52.14,16.13,52.45Z"/><path class="cls-1" d="M24.67,138.39c-.38.32-.56.59-.72.58s-.38-.26-.56-.41c.12-.14.23-.38.37-.4A3.61,3.61,0,0,1,24.67,138.39Z"/><path class="cls-1" d="M28.09,34.09A4.9,4.9,0,0,1,27,34.6c-.14,0-.49-.35-.46-.44a1.57,1.57,0,0,1,.54-.71C27.1,33.4,27.41,33.67,28.09,34.09Z"/><path class="cls-1" d="M45.82,148.64c-.47.26.2,1.3-.8,1.17a.54.54,0,0,1-.36-.36c-.13-1,.94-.28,1.18-.79Z"/><path class="cls-1" d="M94.41,159.63c-.48.16-.75.34-1,.31s-.34-.32-.5-.5c.22-.2.43-.56.66-.57S94,159.24,94.41,159.63Z"/><path class="cls-1" d="M165.8,81.17c-.33-.29-.65-.46-.64-.59a2.84,2.84,0,0,1,.38-.73c.21.13.56.23.58.37S166,80.74,165.8,81.17Z"/><path class="cls-1" d="M82.7,161.34l-.85.62c-.13-.2-.41-.42-.37-.57a.82.82,0,0,1,.52-.52C82.13,160.83,82.36,161.09,82.7,161.34Z"/><path class="cls-1" d="M15.09,49.24l-.57.63c-.17-.15-.46-.3-.48-.47a.69.69,0,0,1,.37-.54C14.55,48.82,14.78,49.06,15.09,49.24Z"/><path class="cls-1" d="M12.37,81.68c-.51.29-.8.58-1.1.59s-.44-.36-.66-.56c.25-.25.47-.66.75-.71S11.89,81.34,12.37,81.68Z"/><path class="cls-1" d="M21.1,48.81c-.33.31-.6.69-.74.65s-.51-.4-.76-.62c.22-.19.42-.51.65-.53S20.73,48.58,21.1,48.81Z"/><path class="cls-1" d="M89.21,6.62c-.46.21-.78.48-1,.41s-.37-.45-.44-.73c0-.07.4-.39.56-.35S88.81,6.29,89.21,6.62Z"/><path class="cls-1" d="M38,148a3.13,3.13,0,0,1-1,.26c-.14,0-.24-.35-.36-.54a2.18,2.18,0,0,1,.72-.38C37.48,147.36,37.64,147.68,38,148Z"/><path class="cls-1" d="M155.5,121.08l.69.52a2.78,2.78,0,0,1-.56.62c-.08,0-.47-.25-.52-.44S155.32,121.39,155.5,121.08Z"/><path class="cls-1" d="M20.3,123.09c-.42.17-.65.36-.85.32s-.39-.28-.58-.43c.23-.16.45-.4.7-.43S19.94,122.8,20.3,123.09Z"/><path class="cls-1" d="M24.29,133.51c-.27.23-.54.56-.61.52a2.59,2.59,0,0,1-.59-.6c.18-.15.37-.42.54-.41S24,133.28,24.29,133.51Z"/><path class="cls-1" d="M144,134.31c-.37.29-.61.61-.82.59s-.45-.36-.53-.61.32-.49.47-.47S143.64,134.07,144,134.31Z"/><path class="cls-1" d="M97.81,160.28c.32.37.58.57.66.82s-.35.54-.42.51a1.22,1.22,0,0,1-.64-.54C97.35,160.94,97.61,160.67,97.81,160.28Z"/><path class="cls-1" d="M146.91,134.52c-.4.2-.65.42-.89.41s-.51-.38-.47-.47a2.84,2.84,0,0,1,.55-.67Z"/><path class="cls-1" d="M148.81,31.94a3,3,0,0,1-.52-.87c0-.11.34-.3.52-.45.18.22.45.41.52.66S149.05,31.64,148.81,31.94Z"/><path class="cls-1" d="M50.8,155.25c-.37.1-.64.27-.8.2s-.27-.37-.4-.57a2.88,2.88,0,0,1,.78-.36C50.46,154.51,50.61,154.9,50.8,155.25Z"/><path class="cls-1" d="M53.34,14.08c-.4.37-.6.69-.84.73s-.44-.3-.66-.47c.19-.22.35-.55.59-.62S52.91,13.9,53.34,14.08Z"/><path class="cls-1" d="M106.78,159.75a5.24,5.24,0,0,1-.94.52c-.07,0-.38-.4-.33-.52a.82.82,0,0,1,.54-.44C106.23,159.29,106.44,159.53,106.78,159.75Z"/><path class="cls-1" d="M152.48,126.68c-.3-.4-.64-.65-.61-.87s.37-.45.63-.54.5.31.49.46S152.73,126.24,152.48,126.68Z"/><path class="cls-1" d="M42.76,16.51l.45.65a2,2,0,0,1-.58.36c-.1,0-.38-.27-.35-.35A2.58,2.58,0,0,1,42.76,16.51Z"/><path class="cls-1" d="M111.28,156.82c.41.88.62,1.1.58,1.28s-.3.37-.46.56c-.18-.23-.45-.43-.5-.68S111.05,157.48,111.28,156.82Z"/><path class="cls-1" d="M33.13,30.51a6,6,0,0,1,1-.69c.06,0,.47.37.44.47a5.41,5.41,0,0,1-.58.94Z"/><path class="cls-1" d="M141.82,24.77c.29.23.64.4.63.52a2.55,2.55,0,0,1-.41.78c-.22-.2-.51-.35-.64-.6S141.63,25.08,141.82,24.77Z"/><path class="cls-1" d="M3.92,91.37l-.74.42c-.1-.2-.27-.4-.27-.6s.31-.42.37-.39A3,3,0,0,1,3.92,91.37Z"/><path class="cls-1" d="M150.41,126.54c-.31.16-.54.38-.69.34s-.35-.32-.53-.49c.21-.17.4-.42.64-.49C149.92,125.87,150.13,126.22,150.41,126.54Z"/><path class="cls-1" d="M121.3,153.7c.25.43.54.7.51.93s-.44.39-.69.41-.47-.37-.44-.51S121,154.08,121.3,153.7Z"/><path class="cls-1" d="M125.32,150a3.15,3.15,0,0,1-.48-.84c0-.12.42-.45.5-.41a1.21,1.21,0,0,1,.54.62C125.91,149.43,125.59,149.66,125.32,150Z"/><path class="cls-1" d="M128,16.65c-.85.43-1.13.67-1.23.61a1.5,1.5,0,0,1-.56-.66c0-.07.34-.44.52-.44A5.06,5.06,0,0,1,128,16.65Z"/><path class="cls-1" d="M165.56,62.7c-.34.2-.63.46-.75.4s-.35-.41-.52-.64c.21-.1.43-.31.62-.28S165.27,62.45,165.56,62.7Z"/><path class="cls-1" d="M108.28,5.86c.3.33.58.51.6.71s-.34.48-.5.46a.84.84,0,0,1-.49-.52C107.85,6.37,108.1,6.15,108.28,5.86Z"/><path class="cls-1" d="M8.92,90.05c.29.36.56.55.6.78s-.27.53-.41.52-.49-.23-.73-.37Z"/><path class="cls-1" d="M168,88.24c-.42.1-.74.25-.83.17a2.48,2.48,0,0,1-.39-.74c.22,0,.48-.16.66-.09S167.71,87.91,168,88.24Z"/><path class="cls-1" d="M165.91,88c-.21.23-.36.47-.43.45a2.51,2.51,0,0,1-.6-.36c.11-.13.22-.38.31-.38A2.76,2.76,0,0,1,165.91,88Z"/><path class="cls-1" d="M40.31,19.56c-.28-.37-.5-.55-.5-.72s.22-.37.35-.55c.16.15.42.28.46.47S40.48,19.15,40.31,19.56Z"/><path class="cls-1" d="M84.2,6.52l-.9.66c-.16-.24-.4-.47-.43-.72S83.2,6,83.34,6,83.83,6.27,84.2,6.52Z"/><path class="cls-1" d="M35.34,148.52l-.42.45-.46-.43c.13-.11.25-.31.39-.31S35.14,148.39,35.34,148.52Z"/><path class="cls-1" d="M33.45,146.92c-.29.25-.46.51-.61.5s-.37-.26-.55-.4c.13-.17.25-.46.41-.49S33.1,146.72,33.45,146.92Z"/><path class="cls-1" d="M135.74,146c-.29.22-.5.48-.66.46a.76.76,0,0,1-.47-.5c0-.13.29-.45.45-.45S135.43,145.72,135.74,146Z"/><path class="cls-1" d="M41.56,21.42c-.37.24-.59.48-.83.51s-.46-.43-.41-.53a1.07,1.07,0,0,1,.62-.5C41.06,20.87,41.27,21.16,41.56,21.42Z"/><path class="cls-1" d="M81.49,167l-.48.29a1.52,1.52,0,0,1-.18-.47c0-.09.16-.18.24-.28Z"/><path class="cls-1" d="M104.1,166.1c-.1.16-.15.33-.22.33a1.67,1.67,0,0,1-.48-.11c0-.1.09-.28.14-.29A3.05,3.05,0,0,1,104.1,166.1Z"/><path class="cls-1" d="M138.77,142.88c-.3-.34-.58-.53-.63-.76s.27-.38.43-.57a3,3,0,0,1,.66.62C139.28,142.25,139,142.53,138.77,142.88Z"/><path class="cls-1" d="M10.11,83.25c-.29.23-.51.51-.64.48a2.6,2.6,0,0,1-.74-.48c.17-.21.37-.62.5-.6S9.73,83,10.11,83.25Z"/><path class="cls-1" d="M35.62,23.91a4.58,4.58,0,0,1,1.21-.4c.16,0,.5.34.47.46a1.32,1.32,0,0,1-.5.71C36.74,24.73,36.42,24.44,35.62,23.91Z"/><path class="cls-1" d="M35.05,26.25l-.82.65c-.15-.25-.39-.49-.42-.75s.34-.51.45-.48A3,3,0,0,1,35.05,26.25Z"/><path class="cls-1" d="M46.77,14.32c.19-.14.34-.34.47-.33s.27.23.41.35c-.14.14-.26.37-.41.39S47,14.5,46.77,14.32Z"/><path class="cls-1" d="M167.44,95.75c-.53.22-.78.41-1,.38s-.34-.32-.4-.53.2-.39.3-.39S166.73,95.38,167.44,95.75Z"/><path class="cls-1" d="M164.5,96.24c-.34.23-.53.46-.71.46s-.41-.22-.62-.35c.18-.2.33-.5.56-.58S164.13,96,164.5,96.24Z"/><path class="cls-1" d="M37.56,26.4c.25.42.53.69.49.91s-.42.4-.67.43-.45-.37-.42-.51S37.27,26.77,37.56,26.4Z"/><path class="cls-1" d="M93.46,7.1c-.21-.36-.42-.57-.39-.7a1,1,0,0,1,.46-.56c.08,0,.5.28.47.37A3.84,3.84,0,0,1,93.46,7.1Z"/><path class="cls-1" d="M97,165.17l-.44-.39.46-.46c.12.12.33.25.33.37S97.18,165,97,165.17Z"/><path class="cls-1" d="M135.31,150c-.26-.36-.52-.56-.5-.71s.29-.36.49-.45.36.22.36.34S135.5,149.61,135.31,150Z"/><path class="cls-1" d="M62.27,162.24a6.28,6.28,0,0,1,.39,1.47.78.78,0,0,1-.44.49c-.09,0-.39-.19-.43-.34S61.89,163.46,62.27,162.24Z"/><path class="cls-1" d="M144.68,28.4c-.37-.26-.74-.44-.72-.52a1.66,1.66,0,0,1,.45-.72s.5.2.53.34A2.63,2.63,0,0,1,144.68,28.4Z"/><path class="cls-1" d="M36.32,28.67l-.8.59a2.39,2.39,0,0,1-.45-.78c0-.15.39-.53.47-.49A3.83,3.83,0,0,1,36.32,28.67Z"/><path class="cls-1" d="M164.1,98.78c-.41.25-.65.48-.92.51s-.3-.34-.45-.53a2.39,2.39,0,0,1,.68-.49C163.55,98.24,163.77,98.53,164.1,98.78Z"/><path class="cls-1" d="M4.92,99.32l-.51.41A2.32,2.32,0,0,1,4,99.11c0-.08.24-.24.37-.36Z"/><path class="cls-1" d="M31.82,149.89c.1.07.28.18.27.21a2,2,0,0,1-.26.41c-.07-.11-.2-.21-.21-.33S31.74,150,31.82,149.89Z"/><path class="cls-1" d="M141.35,135.14c.35.43.66.65.69.9s-.35.46-.6.54-.49-.28-.49-.45S141.14,135.61,141.35,135.14Z"/><path class="cls-1" d="M107,6c-.53.16-.79.32-1,.28a.75.75,0,0,1-.51-.47c0-.14.21-.51.34-.51S106.21,5.5,107,6Z"/><path class="cls-1" d="M112.08,7.1l-.61.53c-.14-.17-.4-.35-.39-.52s.25-.37.39-.55Z"/><path class="cls-1" d="M84.79,3.13c-.29.21-.49.43-.56.39a1.9,1.9,0,0,1-.48-.46c.13-.11.27-.31.38-.3A2.41,2.41,0,0,1,84.79,3.13Z"/><path class="cls-1" d="M95.84,3.1c-.27.25-.42.5-.59.51s-.41-.18-.62-.28c.15-.23.26-.52.47-.65S95.49,2.89,95.84,3.1Z"/><path class="cls-1" d="M102.08,8.12c-.47.15-.79.36-1,.28s-.34-.45-.5-.69c.23-.15.5-.45.67-.4S101.69,7.71,102.08,8.12Z"/><path class="cls-1" d="M31.54,30.26c-.43.18-.66.37-.83.33s-.29-.33-.44-.5c.2-.12.4-.32.6-.32S31.19,30,31.54,30.26Z"/><path class="cls-1" d="M9.39,74.33c.26.44.54.7.51.92s-.35.47-.54.7c-.22-.18-.63-.4-.61-.55A4,4,0,0,1,9.39,74.33Z"/><path class="cls-1" d="M145,31.12c.28.25.61.44.59.54a2.59,2.59,0,0,1-.45.68c-.17-.17-.43-.31-.48-.5S144.81,31.45,145,31.12Z"/><path class="cls-1" d="M20.91,133.67c-.19.28-.33.56-.38.54a1.14,1.14,0,0,1-.56-.35c0-.05.13-.42.22-.42A2.44,2.44,0,0,1,20.91,133.67Z"/><path class="cls-1" d="M23.83,34.4c-.38-.55-.58-.74-.54-.81a2.48,2.48,0,0,1,.45-.53c.14.16.38.31.39.48A2.93,2.93,0,0,1,23.83,34.4Z"/><path class="cls-1" d="M144.74,131.92c.24.41.47.65.5.92s-.31.32-.49.49a2.73,2.73,0,0,1-.51-.74C144.2,132.46,144.49,132.24,144.74,131.92Z"/><path class="cls-1" d="M147.87,131.7l.54.72-.71.46c-.11-.2-.31-.41-.3-.61S147.65,132,147.87,131.7Z"/><path class="cls-1" d="M67.2,162.59c-.3-.27-.64-.5-.61-.57a3.55,3.55,0,0,1,.53-.71c.15.17.41.32.43.51S67.37,162.24,67.2,162.59Z"/><path class="cls-1" d="M128.14,151.4c-.21-.34-.47-.62-.41-.72a2.43,2.43,0,0,1,.64-.59c.15.19.45.42.41.55S128.44,151.07,128.14,151.4Z"/><path class="cls-1" d="M167.55,70.5c-.36.25-.56.5-.76.51s-.47-.34-.44-.46a.76.76,0,0,1,.5-.49C167,70,167.22,70.28,167.55,70.5Z"/><path class="cls-1" d="M12.18,106.36c.2.32.49.62.43.71s-.42.32-.64.47c-.11-.2-.31-.4-.29-.58S12,106.62,12.18,106.36Z"/><path class="cls-1" d="M54.06,14.7c-.28-.94-.44-1.2-.4-1.44a.9.9,0,0,1,.45-.5c.08,0,.39.19.42.33A7.15,7.15,0,0,1,54.06,14.7Z"/><path class="cls-1" d="M79.74,3.81c-.38.17-.63.38-.81.34s-.31-.35-.46-.54c.19-.13.39-.38.56-.36S79.41,3.53,79.74,3.81Z"/><path class="cls-1" d="M118.29,158.54a2.33,2.33,0,0,1,.21.68c0,.1-.37.28-.4.25a1.6,1.6,0,0,1-.35-.57C117.74,158.85,118,158.71,118.29,158.54Z"/><path class="cls-1" d="M16.71,39.84c-.15.19-.3.45-.35.43a1.92,1.92,0,0,1-.48-.34c.12-.13.22-.33.36-.36S16.52,39.72,16.71,39.84Z"/><path class="cls-1" d="M20.52,40.24c-.29.17-.49.38-.62.35s-.32-.28-.47-.44c.15-.11.29-.29.45-.31S20.17,40,20.52,40.24Z"/><path class="cls-1" d="M13.06,67.42c.29.4.6.64.58.86a.89.89,0,0,1-.52.66,1,1,0,0,1-.7-.42A5.25,5.25,0,0,1,13.06,67.42Z"/><path class="cls-1" d="M152.08,41c-.22-.38-.48-.66-.42-.77s.41-.39.64-.58c.14.18.42.4.39.55S152.37,40.61,152.08,41Z"/><path class="cls-1" d="M105.54,162.24c-.34.26-.51.5-.68.5s-.37-.23-.56-.36c.14-.17.26-.45.43-.48S105.14,162.06,105.54,162.24Z"/><path class="cls-1" d="M96.42,162.14c-.43.17-.66.35-.83.3s-.31-.31-.46-.47c.2-.13.38-.36.58-.36S96.05,161.85,96.42,162.14Z"/><path class="cls-1" d="M123.39,152.35a3.64,3.64,0,0,1,.5.81c0,.08-.39.41-.51.36a.94.94,0,0,1-.53-.56C122.82,152.84,123.14,152.62,123.39,152.35Z"/><path class="cls-1" d="M67.78,158.8c-.42.31-.65.63-.9.63s-.41-.35-.62-.55c.21-.19.41-.49.65-.53S67.38,158.58,67.78,158.8Z"/><path class="cls-1" d="M160.65,112.3a2.56,2.56,0,0,1-.41-.65c0-.07.3-.33.34-.31a1.44,1.44,0,0,1,.47.48C161.08,111.87,160.85,112.06,160.65,112.3Z"/><path class="cls-1" d="M16.19,127.88c-.36.06-.67.19-.75.11a.93.93,0,0,1-.21-.67c0-.09.43-.27.51-.21A2.86,2.86,0,0,1,16.19,127.88Z"/><path class="cls-1" d="M68.29,6.52c-.19-.26-.37-.42-.41-.61s.27-.36.34-.33A1.06,1.06,0,0,1,68.7,6S68.5,6.25,68.29,6.52Z"/><path class="cls-1" d="M24.05,43.25c-.33-.42-.63-.64-.66-.89s.37-.43.61-.5.46.3.46.47S24.26,42.82,24.05,43.25Z"/><path class="cls-1" d="M6.12,61.89c.29.58.5.81.45,1a.64.64,0,0,1-.51.37.61.61,0,0,1-.39-.47C5.67,62.54,5.87,62.33,6.12,61.89Z"/><path class="cls-1" d="M117.29,156.71c-.34.25-.57.54-.7.5s-.38-.34-.57-.52c.19-.14.37-.37.57-.39S117,156.5,117.29,156.71Z"/><path class="cls-1" d="M161.43,114.61c-.17-.39-.38-.64-.32-.78a1,1,0,0,1,.59-.52c.09,0,.48.38.44.48C162,114.05,161.78,114.24,161.43,114.61Z"/><path class="cls-1" d="M156.38,126.16a2.77,2.77,0,0,1-.67.44c-.1,0-.38-.3-.36-.33a1.31,1.31,0,0,1,.46-.5C155.89,125.74,156.09,126,156.38,126.16Z"/><path class="cls-1" d="M57.62,9.89c-.24-.21-.48-.37-.47-.41a1.93,1.93,0,0,1,.41-.57s.4.19.38.26A3,3,0,0,1,57.62,9.89Z"/><path class="cls-1" d="M159.23,114.05c-.2.17-.38.41-.45.38s-.29-.26-.44-.41c.15-.11.28-.3.44-.32S159,113.89,159.23,114.05Z"/><path class="cls-1" d="M100.07,163.5a4.94,4.94,0,0,1,.53.88c0,.06-.36.38-.48.34a.79.79,0,0,1-.5-.49C99.59,164.06,99.85,163.84,100.07,163.5Z"/><path class="cls-1" d="M10.06,58.53a3,3,0,0,1,.38.84c0,.14-.18.29-.29.44-.17-.16-.43-.29-.47-.47S9.84,59,10.06,58.53Z"/><path class="cls-1" d="M19.87,44.46c-.39.31-.6.58-.85.64s-.36-.26-.55-.4a2.59,2.59,0,0,1,.64-.64C19.21,44,19.48,44.25,19.87,44.46Z"/><path class="cls-1" d="M13,116.3l-.39.46-.48-.5c.13-.12.27-.34.41-.34S12.78,116.14,13,116.3Z"/><path class="cls-1" d="M122.49,11.74c-.26-.31-.51-.46-.52-.63s.17-.42.27-.63c.22.15.52.26.63.48S122.69,11.36,122.49,11.74Z"/><path class="cls-1" d="M16.4,46.64c-.34.3-.5.57-.68.58s-.36-.25-.54-.39c.14-.18.25-.45.42-.49S16,46.48,16.4,46.64Z"/><path class="cls-1" d="M8.17,58.6c-.28-.24-.61-.46-.58-.52a3.53,3.53,0,0,1,.52-.7c.17.17.43.33.47.53S8.37,58.29,8.17,58.6Z"/><path class="cls-1" d="M156.72,46.67a3.24,3.24,0,0,1-.86.5c-.11,0-.45-.42-.41-.47a1.29,1.29,0,0,1,.61-.55C156.18,46.11,156.41,46.41,156.72,46.67Z"/><path class="cls-1" d="M14.18,56.64c-.29.25-.46.51-.65.52s-.39-.23-.59-.36a3.15,3.15,0,0,1,.61-.65S13.89,56.4,14.18,56.64Z"/><path class="cls-1" d="M158.48,46.62c.3.35.56.54.64.79s-.34.51-.4.49a1.65,1.65,0,0,1-.67-.55C158,47.26,158.26,47,158.48,46.62Z"/><path class="cls-1" d="M22.11,122.83c-.2-.33-.47-.61-.42-.71a1.22,1.22,0,0,1,.65-.51c.09,0,.47.38.43.47C22.67,122.33,22.42,122.51,22.11,122.83Z"/><path class="cls-1" d="M126.87,152c-.35.15-.62.37-.74.3a1,1,0,0,1-.48-.62c0-.13.3-.33.47-.5Z"/><path class="cls-1" d="M107.33,162.43c-.15-.19-.34-.33-.35-.47s.16-.31.26-.46c.16.14.38.25.47.43S107.5,162.22,107.33,162.43Z"/><path class="cls-1" d="M161.65,49.36a5.1,5.1,0,0,1-1.2.49c-.17,0-.53-.36-.49-.45a1.31,1.31,0,0,1,.53-.68C160.59,48.67,160.88,48.92,161.65,49.36Z"/><path class="cls-1" d="M119.23,9.58l.71.8c-.21.17-.39.44-.63.49s-.52-.25-.51-.38A3,3,0,0,1,119.23,9.58Z"/><path class="cls-1" d="M162.57,119.64a2.39,2.39,0,0,1-.69.39c-.08,0-.34-.3-.32-.33a1.57,1.57,0,0,1,.49-.47C162.11,119.2,162.31,119.42,162.57,119.64Z"/><path class="cls-1" d="M13.48,51.77c-.34.2-.57.44-.73.41a.63.63,0,0,1-.37-.53.66.66,0,0,1,.49-.42C13,51.23,13.2,51.5,13.48,51.77Z"/><path class="cls-1" d="M52.07,10.44l.43.52a2.36,2.36,0,0,1-.56.41c-.08,0-.39-.3-.37-.34A4,4,0,0,1,52.07,10.44Z"/><path class="cls-1" d="M38.94,151.85l.65.72a2,2,0,0,1-.54.44c-.07,0-.35-.24-.37-.39S38.8,152.23,38.94,151.85Z"/><path class="cls-1" d="M98.4,4.66c-.24.21-.41.48-.56.47s-.54-.3-.51-.38a2.3,2.3,0,0,1,.45-.65Z"/><path class="cls-1" d="M142.54,143.62c-.23.26-.36.54-.54.57s-.41-.17-.61-.27l.44-.76Z"/><path class="cls-1" d="M142.26,140.82c-.75.42-1,.64-1.25.66s-.47-.38-.43-.49c.09-.27.32-.64.54-.68S141.69,140.54,142.26,140.82Z"/><path class="cls-1" d="M59.1,157.38l-.71-.85c.19-.15.39-.43.55-.41a.79.79,0,0,1,.53.49C59.52,156.76,59.29,157,59.1,157.38Z"/><path class="cls-1" d="M164.38,56.71c-.27.21-.48.49-.62.46a.72.72,0,0,1-.47-.51c0-.18.29-.36.46-.55Z"/><path class="cls-1" d="M54.49,9.5c.19.25.41.46.38.5a1.13,1.13,0,0,1-.48.41c-.06,0-.35-.26-.33-.36S54.3,9.72,54.49,9.5Z"/><path class="cls-1" d="M11.08,56.58c-.12.13-.23.31-.28.3a2.09,2.09,0,0,1-.46-.26c.07-.11.17-.31.21-.3A2.87,2.87,0,0,1,11.08,56.58Z"/><path class="cls-1" d="M44.81,151.77c.18.24.39.45.36.48a1.41,1.41,0,0,1-.49.42c-.06,0-.35-.26-.32-.32A2.77,2.77,0,0,1,44.81,151.77Z"/><path class="cls-1" d="M14.85,123.58l-.32.4c-.08-.1-.23-.2-.22-.28a1.48,1.48,0,0,1,.23-.4Z"/><path class="cls-1" d="M164.52,116.13c.18.19.36.3.4.45s-.19.24-.29.37c-.12-.12-.3-.21-.32-.34S164.43,116.33,164.52,116.13Z"/><path class="cls-1" d="M162,46.15a2.62,2.62,0,0,1-.64.43c-.09,0-.24-.21-.36-.32a1.66,1.66,0,0,1,.45-.43C161.53,45.79,161.72,46,162,46.15Z"/><path class="cls-1" d="M159.26,116.55c-.4.17-.64.37-.81.32s-.29-.32-.43-.5c.2-.13.39-.35.59-.35S159,116.28,159.26,116.55Z"/><path class="cls-1" d="M9.4,116.1l-.53.23a2.21,2.21,0,0,1-.15-.48c0-.06.23-.21.26-.18A2.46,2.46,0,0,1,9.4,116.1Z"/><path class="cls-1" d="M71.38,4.73a2.66,2.66,0,0,1-.61.43c-.07,0-.35-.28-.33-.33a1.6,1.6,0,0,1,.45-.52A3.64,3.64,0,0,1,71.38,4.73Z"/><path class="cls-1" d="M66.88,4.34c-.28.15-.44.29-.6.3s-.3-.14-.45-.21c.13-.16.22-.36.38-.44S66.49,4.13,66.88,4.34Z"/><path class="cls-1" d="M13.29,59.1c-.2.25-.32.5-.4.48a2.42,2.42,0,0,1-.65-.27c.11-.17.21-.45.35-.47S13,59,13.29,59.1Z"/><path class="cls-1" d="M158.68,44.2a3.3,3.3,0,0,1-.89.44c-.08,0-.39-.45-.33-.54a1.12,1.12,0,0,1,.65-.5C158.23,43.57,158.43,43.93,158.68,44.2Z"/><path class="cls-1" d="M92.89,161.21c.22.24.47.43.44.49a1.15,1.15,0,0,1-.45.48s-.37-.24-.36-.34A2.07,2.07,0,0,1,92.89,161.21Z"/><path class="cls-1" d="M11.54,113.38c.24.38.45.58.45.77s-.25.32-.38.48c-.16-.17-.4-.33-.45-.53S11.33,113.75,11.54,113.38Z"/><path class="cls-1" d="M9.5,112.77c-.12,0-.26.11-.32.07s-.1-.19-.15-.3c.12,0,.25-.11.35-.08S9.46,112.66,9.5,112.77Z"/><path class="cls-1" d="M84.29,164.5c-.13.11-.23.26-.37.3s-.21-.12-.31-.19l.32-.45Z"/><path class="cls-1" d="M18,42.08l-.25.39-.46-.35c.07-.09.17-.27.23-.26A2.25,2.25,0,0,1,18,42.08Z"/><path class="cls-1" d="M166.49,111.7c-.45.16-.64.3-.75.25s-.17-.27-.18-.42.19-.2.26-.18A3.66,3.66,0,0,1,166.49,111.7Z"/><path class="cls-1" d="M45.44,12.82c-.26-.41-.43-.57-.41-.68s.25-.32.36-.3a.51.51,0,0,1,.32.36C45.72,12.35,45.58,12.52,45.44,12.82Z"/><path class="cls-1" d="M8.68,65.44a3.16,3.16,0,0,1-.81.26c-.13,0-.36-.29-.34-.33.1-.19.27-.44.43-.45S8.31,65.16,8.68,65.44Z"/><path class="cls-1" d="M125.65,12.42c-1.36.31-1.58.43-1.76.38s-.32-.31-.29-.4.28-.42.45-.44A7.76,7.76,0,0,1,125.65,12.42Z"/><path class="cls-1" d="M164.27,109.94c-.12-.19-.28-.34-.27-.48s.3-.3.34-.28a2.18,2.18,0,0,1,.4.45Z"/><path class="cls-1" d="M9.77,109.27l.36-.47.48.43c-.13.13-.24.33-.39.36S10,109.4,9.77,109.27Z"/><path class="cls-1" d="M61.49,157.38c.26.34.53.54.5.69s-.29.42-.45.62c-.15-.18-.38-.34-.42-.54S61.29,157.76,61.49,157.38Z"/><path class="cls-1" d="M46.61,17.35a2.15,2.15,0,0,1-.36-.68c0-.11.24-.24.37-.37a1.94,1.94,0,0,1,.44.52C47.09,16.9,46.84,17.09,46.61,17.35Z"/><path class="cls-1" d="M8.23,70c-.32.31-.48.57-.63.57s-.37-.24-.45-.42.18-.37.3-.39S7.84,69.85,8.23,70Z"/><path class="cls-1" d="M154.71,35.74c-.16.14-.29.36-.4.34s-.28-.2-.42-.31l.45-.47Z"/><path class="cls-1" d="M36.58,153.24l-.25.23a2.85,2.85,0,0,1-.16-.3s.1-.14.12-.13A1.68,1.68,0,0,1,36.58,153.24Z"/><path class="cls-1" d="M22.19,35.33c-.18.2-.27.41-.4.43s-.29-.13-.43-.21c.1-.15.18-.35.32-.42S22,35.23,22.19,35.33Z"/><path class="cls-1" d="M76.71,3.86l-.77.32a2.27,2.27,0,0,1-.24-.69c0-.08.32-.29.4-.25S76.42,3.55,76.71,3.86Z"/><path class="cls-1" d="M122.61,158.91c-.25.12-.41.26-.54.24s-.22-.22-.25-.36.2-.24.27-.22S122.37,158.75,122.61,158.91Z"/><path class="cls-1" d="M131.14,12.79c-.42.29-.62.53-.8.51s-.32-.29-.49-.45c.14-.13.26-.35.41-.36S130.66,12.61,131.14,12.79Z"/><path class="cls-1" d="M170.33,71.57l-.39.47-.45-.44c.13-.12.24-.32.37-.33S170.14,71.44,170.33,71.57Z"/><path class="cls-1" d="M162,106.29l-.69.38c-.08-.18-.26-.4-.21-.51s.32-.28.5-.41Z"/><path class="cls-1" d="M47.73,156.32a3.56,3.56,0,0,1-.84.43c-.16,0-.34-.15-.51-.23.14-.18.25-.45.43-.51S47.21,156.13,47.73,156.32Z"/><path class="cls-1" d="M96.7,166.89c-.24.18-.37.36-.49.35s-.23-.2-.34-.31c.08-.08.17-.23.26-.23A2.29,2.29,0,0,1,96.7,166.89Z"/><path class="cls-1" d="M74.15,3.81l-.58.51c-.11-.13-.34-.3-.31-.36a3.35,3.35,0,0,1,.44-.57Z"/><path class="cls-1" d="M4.62,74.37a2.31,2.31,0,0,1-.65.44c-.08,0-.35-.26-.33-.38a1.88,1.88,0,0,1,.33-.6Z"/><path class="cls-1" d="M91.12,165c-.18-.21-.4-.35-.39-.47s.2-.28.31-.42c.12.12.32.23.34.36S91.24,164.72,91.12,165Z"/><path class="cls-1" d="M28.8,32.3,28.22,32a1.71,1.71,0,0,1,.38-.52c.09-.06.32.12.49.19Z"/><path class="cls-1" d="M119.75,8.09l-.48-.37.46-.5c.12.14.31.26.33.41S119.88,7.91,119.75,8.09Z"/><path class="cls-1" d="M105.68,2.53c.19.13.48.26.47.34a1.53,1.53,0,0,1-.32.52c-.13-.12-.33-.22-.36-.35S105.59,2.72,105.68,2.53Z"/><path class="cls-1" d="M165.6,74.57l-.71.3c-.06-.17-.23-.41-.17-.49a1.9,1.9,0,0,1,.55-.4Z"/><path class="cls-1" d="M26.05,31.66a2.13,2.13,0,0,1-.56.15c-.1,0-.3-.18-.29-.2a3.52,3.52,0,0,1,.3-.45Z"/><path class="cls-1" d="M18.48,135.45c-.23-.19-.44-.28-.49-.43s.16-.27.25-.4c.15.1.35.17.43.32S18.57,135.22,18.48,135.45Z"/><path class="cls-1" d="M41.46,153.5c-.08.19-.12.38-.16.38a2.88,2.88,0,0,1-.49-.11c0-.1.09-.28.16-.3A1.41,1.41,0,0,1,41.46,153.5Z"/><path class="cls-1" d="M137.7,17.31c-.28.2-.48.41-.55.38a2.13,2.13,0,0,1-.48-.47c.13-.11.29-.34.39-.32A2.15,2.15,0,0,1,137.7,17.31Z"/><path class="cls-1" d="M148.91,135.54c.33-.25.52-.51.71-.5s.47.32.46.46a.77.77,0,0,1-.47.52C149.45,136.05,149.24,135.77,148.91,135.54Z"/><path class="cls-1" d="M23.13,135.85a4.31,4.31,0,0,1-.91.36c-.17,0-.35-.15-.52-.24.14-.19.25-.49.43-.54S22.56,135.6,23.13,135.85Z"/><path class="cls-1" d="M10.19,78.14c-.37.23-.62.48-.74.43A2.63,2.63,0,0,1,8.81,78c.18-.16.39-.49.52-.46S9.8,77.85,10.19,78.14Z"/><path class="cls-1" d="M166.06,98.92c.11.22.3.47.25.53a2.07,2.07,0,0,1-.54.34c-.07-.16-.21-.35-.17-.5S165.86,99.07,166.06,98.92Z"/><path class="cls-1" d="M7.19,79.45a8.24,8.24,0,0,1-1.34.25c-.14,0-.41-.17-.4-.25a2.94,2.94,0,0,1,.21-.74Z"/><path class="cls-1" d="M145.14,136.58c-.3.19-.49.42-.65.4s-.37-.26-.55-.41a2.6,2.6,0,0,1,.59-.56C144.59,136,144.85,136.3,145.14,136.58Z"/><path class="cls-1" d="M148.17,137.87a4.31,4.31,0,0,1-1.12.27c-.2,0-.5-.24-.51-.38a.69.69,0,0,1,.35-.57C147,137.14,147.28,137.38,148.17,137.87Z"/><path class="cls-1" d="M146.82,29.41c-.32.23-.53.49-.69.46a.68.68,0,0,1-.45-.48.67.67,0,0,1,.46-.46C146.31,28.92,146.5,29.18,146.82,29.41Z"/><path class="cls-1" d="M168.87,79.21c-.22.08-.4.21-.51.17s-.2-.26-.3-.4c.14-.09.31-.27.43-.24S168.7,79,168.87,79.21Z"/><path class="cls-1" d="M32.54,28a2.28,2.28,0,0,1,.33.67c0,.1-.34.34-.37.32a1.91,1.91,0,0,1-.47-.55A5.08,5.08,0,0,1,32.54,28Z"/><path class="cls-1" d="M140.68,28c.34-.31.5-.56.67-.57s.38.23.45.41-.17.42-.29.43S141.1,28.14,140.68,28Z"/><path class="cls-1" d="M167.08,91.93c-.18-.39-.38-.62-.33-.77a.71.71,0,0,1,.54-.33c.09,0,.34.3.31.41S167.34,91.6,167.08,91.93Z"/><path class="cls-1" d="M144.34,138.71c-.44.18-.7.37-1,.35s-.44-.39-.4-.48c.11-.24.38-.59.56-.57S144,138.37,144.34,138.71Z"/><path class="cls-1" d="M3.35,79.37c.27.36.52.54.51.72s-.28.34-.47.41S3,80.29,3,80.17A2.65,2.65,0,0,1,3.35,79.37Z"/><path class="cls-1" d="M5.64,81.71l.58-.61a2.56,2.56,0,0,1,.5.66c0,.08-.3.42-.47.42S5.9,81.92,5.64,81.71Z"/><path class="cls-1" d="M81.89,3.66a2.57,2.57,0,0,1-.19-.81c0-.14.21-.26.33-.39.15.16.43.33.41.46S82.18,3.29,81.89,3.66Z"/><path class="cls-1" d="M4.53,89.29c1.12-.39,1.34-.53,1.51-.5s.34.32.3.43a.69.69,0,0,1-.45.43A5.9,5.9,0,0,1,4.53,89.29Z"/><path class="cls-1" d="M138.51,140.24c-.39.13-.75.32-.8.26a3,3,0,0,1-.34-.79c.22-.06.48-.23.66-.16S138.29,139.91,138.51,140.24Z"/><path class="cls-1" d="M29.86,140.22l-.59.65c-.14-.15-.35-.29-.39-.47s.14-.45.24-.46S29.51,140.08,29.86,140.22Z"/><path class="cls-1" d="M167.36,82.61c-.15-.25-.3-.39-.33-.56s.23-.21.38-.26.23.19.22.26A2.51,2.51,0,0,1,167.36,82.61Z"/><path class="cls-1" d="M16.41,121.66l-.71.39a1.56,1.56,0,0,1-.21-.48c0-.06.19-.24.27-.22A2.74,2.74,0,0,1,16.41,121.66Z"/><path class="cls-1" d="M170.18,95.59c-.17.08-.34.22-.47.2s-.39-.28-.37-.32a2.27,2.27,0,0,1,.41-.47Z"/><path class="cls-1" d="M4.76,82.8a5.5,5.5,0,0,1-1.33.35A.8.8,0,0,1,3,82.69c0-.1.18-.43.3-.44S3.67,82.38,4.76,82.8Z"/><path class="cls-1" d="M145.16,24.22c.16-.18.26-.4.4-.43s.32.14.48.22l-.39.56Z"/><path class="cls-1" d="M7.73,94.7l-.57.63c-.15-.16-.37-.3-.44-.49s.16-.44.26-.44S7.38,94.54,7.73,94.7Z"/><path class="cls-1" d="M30.78,142.11c-.11-.09-.28-.21-.27-.24a.92.92,0,0,1,.29-.38c.06,0,.22.09.33.15Z"/><path class="cls-1" d="M42.37,156.14a1.6,1.6,0,0,1-.17-.57c0-.15.15-.3.23-.45l.53.35Z"/><path class="cls-1" d="M58.94,6.89l.4-.59a2.66,2.66,0,0,1,.55.44c0,.06-.17.43-.26.42A2.37,2.37,0,0,1,58.94,6.89Z"/><path class="cls-1" d="M47.24,160.52c-.08.07-.21.21-.25.19a2.15,2.15,0,0,1-.32-.29c.11,0,.22-.15.31-.13S47.15,160.43,47.24,160.52Z"/><path class="cls-1" d="M28.45,142.61c-.15.19-.24.42-.36.43a.48.48,0,0,1-.39-.28c0-.13.13-.3.2-.46Z"/><path class="cls-1" d="M84,167.1l-.17-.56a1.76,1.76,0,0,1,.49-.12c.06,0,.18.24.16.28A3.86,3.86,0,0,1,84,167.1Z"/><path class="cls-1" d="M74.67,1.55l-.5.29A2.3,2.3,0,0,1,74,1.36s.22-.21.28-.18A2.09,2.09,0,0,1,74.67,1.55Z"/><path class="cls-1" d="M161.77,52l-.44.71-.66-.55c.16-.18.28-.44.47-.5S161.51,51.85,161.77,52Z"/><path class="cls-1" d="M88.67.5c-.25.1-.43.23-.57.2s-.19-.24-.28-.38c.15-.08.3-.25.44-.23S88.49.31,88.67.5Z"/><path class="cls-1" d="M6.37,84c.15.36.34.61.28.75a.69.69,0,0,1-.53.37.61.61,0,0,1-.36-.51C5.78,84.44,6.06,84.3,6.37,84Z"/><path class="cls-1" d="M138,144.31c-.29.28-.45.56-.63.57s-.38-.24-.58-.38c.15-.19.26-.49.45-.53S137.69,144.14,138,144.31Z"/><path class="cls-1" d="M141.33,23.15c-.21.16-.35.35-.47.33s-.24-.22-.3-.37.16-.27.21-.25A2.31,2.31,0,0,1,141.33,23.15Z"/><path class="cls-1" d="M128.83,154a3,3,0,0,1-.75.3c-.08,0-.19-.23-.29-.35a2.52,2.52,0,0,1,.56-.38C128.43,153.51,128.59,153.73,128.83,154Z"/><path class="cls-1" d="M139.92,145.19c-.19-.23-.39-.37-.44-.56s.28-.38.35-.36a2.17,2.17,0,0,1,.53.4Z"/><path class="cls-1" d="M134.25,15.07a1.86,1.86,0,0,1-.13-.59c0-.06.29-.12.43-.11s.22.26.19.29A4.15,4.15,0,0,1,134.25,15.07Z"/><path class="cls-1" d="M25.21,145.19l.42.56a1.34,1.34,0,0,1-.44.2c-.07,0-.25-.15-.24-.22A2.3,2.3,0,0,1,25.21,145.19Z"/><path class="cls-1" d="M29.84,145.37c.18.22.36.36.35.46s-.21.25-.32.38c-.08-.09-.24-.18-.24-.26A2.63,2.63,0,0,1,29.84,145.37Z"/><path class="cls-1" d="M140.58,19.91l.56.73a2.21,2.21,0,0,1-.62.3c-.12,0-.39-.24-.37-.32S140.37,20.24,140.58,19.91Z"/><path class="cls-1" d="M170.59,86.29c-.15-.2-.32-.33-.32-.47s.17-.27.26-.4c.12.11.32.22.33.33S170.71,86.06,170.59,86.29Z"/><path class="cls-1" d="M90.86,166.73c-.28.22-.45.44-.54.41a2.08,2.08,0,0,1-.52-.39c.12-.12.25-.34.36-.33A2.26,2.26,0,0,1,90.86,166.73Z"/><path class="cls-1" d="M133.2,154.08a2.36,2.36,0,0,1-.47.21s-.14-.17-.2-.27a2.79,2.79,0,0,1,.42-.28A1.53,1.53,0,0,1,133.2,154.08Z"/><path class="cls-1" d="M38.71,20.1c-.52.25-.76.46-.94.42s-.26-.35-.38-.54c.16-.1.32-.28.47-.27S38.25,19.87,38.71,20.1Z"/><path class="cls-1" d="M4,85.42c.18.26.36.42.39.6s-.17.29-.27.44A2.9,2.9,0,0,1,3.55,86S3.73,85.72,4,85.42Z"/><path class="cls-1" d="M134.36,18.43c-.18.16-.32.37-.44.35a.48.48,0,0,1-.31-.36c0-.1.2-.32.31-.32S134.18,18.29,134.36,18.43Z"/><path class="cls-1" d="M136.35,20.92l-.45-.62.53-.35a2.65,2.65,0,0,1,.36.6C136.8,20.61,136.55,20.75,136.35,20.92Z"/><path class="cls-1" d="M143.33,22.75c-.16.22-.29.48-.35.46a2.34,2.34,0,0,1-.63-.32l.35-.55Z"/><path class="cls-1" d="M20.06,138.88c.17-.13.32-.32.4-.29a.65.65,0,0,1,.36.35c0,.06-.11.21-.18.32Z"/><path class="cls-1" d="M1.86,77.55c-.3.28-.44.5-.55.49S1,77.82.9,77.69c.13-.14.25-.37.41-.41S1.63,77.43,1.86,77.55Z"/><path class="cls-1" d="M169.87,68.75c-.29.15-.52.32-.58.28a1.44,1.44,0,0,1-.45-.56s.28-.35.33-.32A4.12,4.12,0,0,1,169.87,68.75Z"/><path class="cls-1" d="M143.57,146.63l-.52.3a2.3,2.3,0,0,1-.17-.48s.2-.19.27-.17A1.81,1.81,0,0,1,143.57,146.63Z"/><path class="cls-1" d="M140.33,148.15l-.2.37a1.41,1.41,0,0,1-.35-.27c0-.06.07-.21.11-.31Z"/><path class="cls-1" d="M144.24,144.68c-.24.14-.46.34-.53.3a1.61,1.61,0,0,1-.38-.5c.17-.08.34-.22.51-.21S144.07,144.5,144.24,144.68Z"/><path class="cls-1" d="M23.91,142.46c-.08.17-.15.37-.19.36a.79.79,0,0,1-.41-.17.49.49,0,0,1,.11-.31A2.49,2.49,0,0,1,23.91,142.46Z"/><path class="cls-1" d="M136.88,141.4c-.46.23-.68.44-.83.4s-.31-.32-.38-.52.26-.32.39-.31S136.44,141.16,136.88,141.4Z"/><path class="cls-1" d="M148.32,141.5c-.16-.23-.3-.35-.33-.49s.15-.28.21-.27a1.54,1.54,0,0,1,.42.22Z"/><path class="cls-1" d="M26,140.9l-.46.39a1.8,1.8,0,0,1-.23-.4c0-.06.15-.23.21-.22A1.83,1.83,0,0,1,26,140.9Z"/><path class="cls-1" d="M101.74,169.69l-.09.22-.13-.1Z"/><path class="cls-1" d="M151.57,135.82l.4.17a4,4,0,0,1-.25.45.58.58,0,0,1-.28-.12A2.3,2.3,0,0,1,151.57,135.82Z"/><path class="cls-1" d="M151.82,133.06a1.6,1.6,0,0,1-.29.05s-.06-.14,0-.18a1.14,1.14,0,0,1,.22-.22Z"/><path class="cls-1" d="M86.85,168.89c0,.11-.07.27-.14.28s-.21,0-.32-.09c0-.09.09-.22.17-.27S86.75,168.86,86.85,168.89Z"/><path class="cls-1" d="M15.63,132.05c-.16.18-.28.41-.38.4a.58.58,0,0,1-.38-.32c0-.09.15-.35.25-.36S15.41,131.92,15.63,132.05Z"/><path class="cls-1" d="M132.32,150.76c-.11-.21-.27-.38-.24-.49s.27-.3.36-.27a.54.54,0,0,1,.31.39C132.75,150.48,132.52,150.59,132.32,150.76Z"/><path class="cls-1" d="M18.67,131.63c.09.08.22.15.26.25s-.11.17-.18.26l-.34-.31Z"/><path class="cls-1" d="M138.17,150.6a2.73,2.73,0,0,1-.23.25l-.24-.39c.1,0,.22-.14.31-.12S138.12,150.51,138.17,150.6Z"/><path class="cls-1" d="M157.06,129.91a1.45,1.45,0,0,1-.4.19c-.06,0-.14-.14-.21-.22l.39-.34Z"/><path class="cls-1" d="M160.18,128.74c0,.14.14.28.11.38s-.2.11-.31.16c0-.11-.12-.25-.09-.34S160.08,128.81,160.18,128.74Z"/><path class="cls-1" d="M158.69,127.24l-.3.15c0-.11-.12-.23-.1-.32s.18-.1.28-.14Z"/><path class="cls-1" d="M93.45.43c-.19.13-.42.32-.46.29a3.11,3.11,0,0,1-.36-.51C92.79.13,93,0,93.11,0S93.31.24,93.45.43Z"/><path class="cls-1" d="M162.33,126.91l-.26.23-.2-.44c.11,0,.25-.14.33-.11S162.3,126.8,162.33,126.91Z"/><path class="cls-1" d="M13.57,125.38l.09-.17a1.45,1.45,0,0,1,.21.22s0,.11-.06.16Z"/><path class="cls-1" d="M96.83.38c.33.56.51.72.49.85a.47.47,0,0,1-.39.26.54.54,0,0,1-.3-.38A2.6,2.6,0,0,1,96.83.38Z"/><path class="cls-1" d="M66.29,166.27c.22.2.39.29.43.43s-.17.25-.29.3-.29-.11-.3-.2S66.21,166.52,66.29,166.27Z"/><path class="cls-1" d="M69,2.27a1.82,1.82,0,0,1-.48.09s-.12-.27-.09-.29a.64.64,0,0,1,.39-.14S68.9,2.12,69,2.27Z"/><path class="cls-1" d="M77.94,166.17a1.76,1.76,0,0,1,.19.27,2.13,2.13,0,0,1-.34.25c0-.11-.1-.22-.08-.32S77.86,166.24,77.94,166.17Z"/><path class="cls-1" d="M161.54,116.63l-.33.51-.51-.38c.12-.12.22-.31.35-.34S161.34,116.54,161.54,116.63Z"/><path class="cls-1" d="M16,116.34c.16.19.39.38.36.42a1.88,1.88,0,0,1-.44.45c-.09-.14-.27-.28-.27-.42S15.85,116.54,16,116.34Z"/><path class="cls-1" d="M11.07,111.84l-.24.38a2.7,2.7,0,0,1-.39-.27.53.53,0,0,1,.16-.28A2.44,2.44,0,0,1,11.07,111.84Z"/><path class="cls-1" d="M8.23,111.2c-.1,0-.22.11-.27.08a.78.78,0,0,1-.17-.28c.1,0,.22-.12.32-.1S8.19,111.08,8.23,111.2Z"/><path class="cls-1" d="M136.29,152.86c-.23.1-.39.23-.54.22s-.28-.17-.42-.26l.38-.48Z"/><path class="cls-1" d="M165.2,106.71l-.42.21c-.05-.11-.17-.27-.14-.31a2.12,2.12,0,0,1,.38-.26Z"/><path class="cls-1" d="M8.28,103.35c-.1-.06-.26-.11-.27-.19s.05-.23.09-.35c.11.06.29.09.32.17S8.33,103.22,8.28,103.35Z"/><path class="cls-1" d="M78.51,1.9c-.26.16-.41.31-.55.31s-.19-.23-.28-.36c.13-.09.26-.25.4-.26S78.32,1.75,78.51,1.9Z"/><path class="cls-1" d="M168.52,98.17l-.26.37a2.12,2.12,0,0,1-.33-.34s.14-.28.16-.27A2.32,2.32,0,0,1,168.52,98.17Z"/><path class="cls-1" d="M172.33,96.94l-.07.18-.19-.2c.05,0,.1-.09.14-.08S172.29,96.91,172.33,96.94Z"/><path class="cls-1" d="M165.54,93.51c-.23.13-.39.29-.51.27a.4.4,0,0,1-.26-.36.43.43,0,0,1,.35-.27C165.24,93.15,165.36,93.34,165.54,93.51Z"/><path class="cls-1" d="M86.12,165a1.73,1.73,0,0,1-.21.25s-.14,0-.14-.07,0-.2,0-.3Z"/><path class="cls-1" d="M169.46,92.73c-.11-.28-.26-.48-.21-.58s.29-.16.46-.2.18.23.15.31A3.13,3.13,0,0,1,169.46,92.73Z"/><path class="cls-1" d="M1.52,92.06l-.09.15-.1-.2Z"/><path class="cls-1" d="M170.34,88.92c.16.19.36.31.36.44s-.16.3-.26.45a2.31,2.31,0,0,1-.45-.43C170,89.32,170.18,89.12,170.34,88.92Z"/><path class="cls-1" d="M2.61,87.52a4.59,4.59,0,0,1,.32.72c0,.09-.09.3-.13.29s-.41,0-.44-.15S2.44,88.06,2.61,87.52Z"/><path class="cls-1" d="M168.15,85.45c-.15-.26-.29-.4-.29-.54s.22-.19.35-.24a.41.41,0,0,1,.18.26A2,2,0,0,1,168.15,85.45Z"/><path class="cls-1" d="M125.29,154.84l-.23-.42c.11,0,.26-.18.31-.15a1.69,1.69,0,0,1,.27.36Z"/><path class="cls-1" d="M131.73,154.78c-.25.13-.41.29-.55.27s-.3-.27-.27-.36a.5.5,0,0,1,.39-.3C131.41,154.39,131.54,154.59,131.73,154.78Z"/><path class="cls-1" d="M.63,84.57l-.27.33A2.33,2.33,0,0,1,0,84.56s.16-.25.2-.23A1.86,1.86,0,0,1,.63,84.57Z"/><path class="cls-1" d="M.37,81.73c.17-.16.28-.35.39-.34s.26.16.31.29S1,81.89.94,82Z"/><path class="cls-1" d="M69.37,165.3c-.28.18-.48.36-.54.33a2.47,2.47,0,0,1-.49-.48c.13-.11.29-.32.38-.29A2.85,2.85,0,0,1,69.37,165.3Z"/><path class="cls-1" d="M167.61,76.55c-.19-.16-.44-.29-.42-.37s.2-.33.31-.5c.12.11.32.21.35.35S167.72,76.33,167.61,76.55Z"/><path class="cls-1" d="M110.33,1.94c.1-.15.19-.33.22-.32a3.62,3.62,0,0,1,.43.24c-.06.11-.14.3-.18.29A2.13,2.13,0,0,1,110.33,1.94Z"/><path class="cls-1" d="M167.85,73.28c-.39.24-.62.47-.74.43a.81.81,0,0,1-.35-.53c0-.08.24-.32.36-.31S167.48,73.06,167.85,73.28Z"/><path class="cls-1" d="M124,156.43c-.14-.18-.34-.33-.32-.44s.22-.27.34-.41l.43.46Z"/><path class="cls-1" d="M133.69,155.64c-.07.11-.12.27-.2.29s-.22-.08-.33-.13c.07-.1.12-.24.21-.27S133.57,155.6,133.69,155.64Z"/><path class="cls-1" d="M3.89,71.19l.32.46L3.68,72c-.08-.17-.22-.34-.21-.5S3.71,71.32,3.89,71.19Z"/><path class="cls-1" d="M5.56,68.39c-.13.2-.21.43-.32.45s-.33-.12-.49-.19a2,2,0,0,1,.33-.52S5.35,68.28,5.56,68.39Z"/><path class="cls-1" d="M166.88,68.15c-.25.12-.43.28-.54.25s-.23-.26-.35-.4c.15-.09.3-.27.43-.26S166.67,68,166.88,68.15Z"/><path class="cls-1" d="M102.67,2.41c.25-.15.41-.32.52-.29s.21.24.31.37c-.13.08-.25.23-.38.23S102.88,2.56,102.67,2.41Z"/><path class="cls-1" d="M168.23,66l.25-.22.26.43c-.1,0-.24.15-.31.12S168.31,66.15,168.23,66Z"/><path class="cls-1" d="M6.32,65.38c-.19.18-.3.35-.44.38s-.32-.18-.32-.27a.51.51,0,0,1,.27-.4C5.93,65.06,6.1,65.24,6.32,65.38Z"/><path class="cls-1" d="M64,3.17a2.69,2.69,0,0,1,.35.16,2.51,2.51,0,0,1-.16.46c-.09,0-.27-.09-.27-.15A1.45,1.45,0,0,1,64,3.17Z"/><path class="cls-1" d="M57.67,3.75c.11.06.28.1.3.18s-.07.23-.12.35c-.1,0-.27-.09-.28-.15A.94.94,0,0,1,57.67,3.75Z"/><path class="cls-1" d="M121.16,156.86c-.06.11-.11.26-.18.28s-.2-.08-.31-.13c.06-.09.11-.23.19-.26S121.05,156.82,121.16,156.86Z"/><path class="cls-1" d="M163.84,52.9c-.15-.26-.31-.42-.28-.53s.22-.22.37-.26.23.18.22.25S164,52.64,163.84,52.9Z"/><path class="cls-1" d="M163.33,50.8c-.12-.19-.3-.4-.27-.45a1.89,1.89,0,0,1,.47-.36c.08.15.24.31.21.44S163.52,50.65,163.33,50.8Z"/><path class="cls-1" d="M114.27,5.33c-.14-.19-.33-.34-.31-.44s.21-.28.33-.41l.43.46Z"/><path class="cls-1" d="M11.59,49c.14.17.33.29.32.4s-.17.3-.27.44l-.45-.4Z"/><path class="cls-1" d="M12.44,46.5l-.25.23L12,46.35c.1-.05.23-.17.31-.14S12.38,46.39,12.44,46.5Z"/><path class="cls-1" d="M15.25,43.48c.19.11.4.18.4.22a3.12,3.12,0,0,1-.18.48c-.1-.06-.27-.11-.29-.19A2.12,2.12,0,0,1,15.25,43.48Z"/><path class="cls-1" d="M159.43,42l.36.22a1.28,1.28,0,0,1-.27.4c-.05,0-.22-.09-.34-.14Z"/><path class="cls-1" d="M157,42.32c-.55.27-.72.43-.86.41a.51.51,0,0,1-.27-.37.54.54,0,0,1,.39-.3C156.38,42,156.56,42.17,157,42.32Z"/><path class="cls-1" d="M154.76,39.78c.15.17.37.36.35.39a2.5,2.5,0,0,1-.43.43c-.1-.14-.27-.27-.28-.42S154.6,40,154.76,39.78Z"/><path class="cls-1" d="M75.22,164.48l-.22-.42c.11-.05.28-.16.32-.13a1.28,1.28,0,0,1,.26.38Z"/><path class="cls-1" d="M71.83,164.13c.19-.25.31-.51.38-.5a1.21,1.21,0,0,1,.57.32s-.14.41-.23.41A2.53,2.53,0,0,1,71.83,164.13Z"/><path class="cls-1" d="M56.19,6.91c-.1-.22-.25-.38-.22-.49s.24-.21.37-.31c.1.13.27.27.26.4S56.39,6.73,56.19,6.91Z"/><path class="cls-1" d="M117.65,6.29l-.33.51-.5-.38c.12-.13.22-.32.36-.35S117.46,6.19,117.65,6.29Z"/><path class="cls-1" d="M123.22,162.85l.31.13-.15.32-.32-.16Z"/><path class="cls-1" d="M19.64,35.49c-.25.16-.38.3-.52.31s-.2-.22-.23-.36.17-.24.23-.22A1.84,1.84,0,0,1,19.64,35.49Z"/><path class="cls-1" d="M113.13,163.25a1.87,1.87,0,0,1-.48.12c-.05,0-.1-.21-.15-.32l.48-.2Z"/><path class="cls-1" d="M150.44,32.69c.07.26.19.45.16.61a1.79,1.79,0,0,1-.33.53,2.14,2.14,0,0,1-.42-.49C149.82,33.29,150.06,33.11,150.44,32.69Z"/><path class="cls-1" d="M149.66,29c-.14.19-.28.44-.33.43a2.29,2.29,0,0,1-.51-.32c.11-.13.21-.33.34-.36S149.44,28.86,149.66,29Z"/><path class="cls-1" d="M127.69,7.8a2.16,2.16,0,0,1-.56.18.42.42,0,0,1-.25-.21,2,2,0,0,1,.28-.39Z"/><path class="cls-1" d="M25.35,29a3.12,3.12,0,0,1-.35-.52s.16-.25.22-.24a1.47,1.47,0,0,1,.42.2Z"/><path class="cls-1" d="M128.84,159.11a1.54,1.54,0,0,1-.3,0,.44.44,0,0,1,0-.16c.11,0,.23,0,.34,0Z"/><path class="cls-1" d="M53.09,8.49l-.18.26a1.81,1.81,0,0,1-.24-.37s.16-.11.25-.18C53,8.3,53,8.39,53.09,8.49Z"/><path class="cls-1" d="M67.19,8.28l-.35.5-.51-.38c.11-.13.21-.34.34-.36S67,8.17,67.19,8.28Z"/><path class="cls-1" d="M122.4,8.61a2.81,2.81,0,0,1,.38.67c0,.07-.31.32-.35.29a1.32,1.32,0,0,1-.45-.49C122,9,122.18,8.85,122.4,8.61Z"/><path class="cls-1" d="M33.76,23.43c-.2.13-.42.32-.47.28a1.86,1.86,0,0,1-.35-.47c.16-.08.32-.23.47-.21S33.62,23.25,33.76,23.43Z"/><path class="cls-1" d="M39,22.53a2.5,2.5,0,0,1-.47.34,3.34,3.34,0,0,1-.44-.54c.16-.07.33-.22.47-.19S38.8,22.36,39,22.53Z"/><path class="cls-1" d="M132.43,9.85l-.21.37-.41-.28c.07-.08.13-.24.19-.24A1.7,1.7,0,0,1,132.43,9.85Z"/><path class="cls-1" d="M139.21,19.19l-.08.14-.13-.08.16-.21Z"/><path class="cls-1" d="M38.57,17.38c-.19-.53-.29-.67-.28-.82s.21-.21.28-.19.31.19.31.29S38.76,17,38.57,17.38Z"/><path class="cls-1" d="M130,16.13c-.36.13-.54.25-.69.23s-.27-.2-.4-.31c.1-.12.18-.32.29-.33S129.5,15.85,130,16.13Z"/><path class="cls-1" d="M44.34,14.83l.21.25-.43.22c0-.1-.15-.26-.11-.3A.79.79,0,0,1,44.34,14.83Z"/><path class="cls-1" d="M61.37,160.84l.43-.4.46.49c-.15.09-.3.25-.44.25S61.56,161,61.37,160.84Z"/><path class="cls-1" d="M41,15.06a2.2,2.2,0,0,1-.31.15l-.15-.42c.11,0,.27-.12.32-.07S41,14.94,41,15.06Z"/><path class="cls-1" d="M137.27,13.49l-.17.4a3.22,3.22,0,0,1-.39-.33s.11-.24.15-.23A1.74,1.74,0,0,1,137.27,13.49Z"/><path class="cls-1" d="M126,160.55a1.48,1.48,0,0,1-.21.27s-.15,0-.15-.08a.9.9,0,0,1,0-.28Z"/><path class="cls-1" d="M117.13,161.14c.16.18.37.3.36.41a.48.48,0,0,1-.3.36c-.11,0-.38-.16-.38-.24S117,161.37,117.13,161.14Z"/><path class="cls-1" d="M56.57,161.74c-.21.09-.37.22-.49.19s-.26-.2-.39-.31c.16-.12.31-.3.49-.33S56.4,161.54,56.57,161.74Z"/><path class="cls-1" d="M59,11c.65-.33.83-.49.92-.45s.22.25.33.39c-.14.09-.27.24-.41.25A3.34,3.34,0,0,1,59,11Z"/><path class="cls-1" d="M42.67,13.7l-.54.28a2.15,2.15,0,0,1-.22-.46s.21-.19.3-.16S42.46,13.53,42.67,13.7Z"/><path class="cls-1" d="M134.42,13l-.26.11c0-.12-.11-.23-.09-.33s.17-.09.26-.14Z"/><path class="cls-1" d="M49.69,13.25a1.33,1.33,0,0,1-.15-.45c0-.05.25-.18.27-.16a2.24,2.24,0,0,1,.31.43Z"/><path class="cls-1" d="M128.11,11.49c-.28.08-.48.21-.59.16s-.16-.29-.19-.45a.4.4,0,0,1,.29-.13A3.47,3.47,0,0,1,128.11,11.49Z"/><path class="cls-1" d="M140.87,151.16a5,5,0,0,1-1.06.37c-.12,0-.23-.18-.35-.28.08-.1.15-.25.25-.28A6.22,6.22,0,0,1,140.87,151.16Z"/><path class="cls-1" d="M159,121.71c-.56.27-.74.42-.85.38a.58.58,0,0,1-.29-.4c0-.07.22-.27.34-.27A3.32,3.32,0,0,1,159,121.71Z"/><path class="cls-1" d="M35.53,21.35l-.46.24c0-.12-.12-.3-.08-.34a1.65,1.65,0,0,1,.44-.22Z"/><path class="cls-1" d="M11.85,118.7l.29.28-.39.24a.93.93,0,0,1-.12-.34C11.64,118.81,11.78,118.75,11.85,118.7Z"/><path class="cls-1" d="M5.88,92.85l.19-.42a4.79,4.79,0,0,1,.41.36s-.12.25-.16.24A2.72,2.72,0,0,1,5.88,92.85Z"/><path class="cls-1" d="M155.71,33.25l.25-.19.22.38c-.09,0-.22.13-.27.1S155.78,33.35,155.71,33.25Z"/><path class="cls-1" d="M59,162.39l-.11,0a.42.42,0,0,1,0-.16s.07,0,.11,0Z"/><path class="cls-1" d="M27.71,28.42l-.15.11-.13-.22a.58.58,0,0,1,.18,0S27.68,28.38,27.71,28.42Z"/><path class="cls-1" d="M22.41,27.59l-.08.17-.2-.18c.05,0,.1-.1.15-.1S22.37,27.55,22.41,27.59Z"/><path class="cls-1" d="M151.17,35.57l0,.13s-.1,0-.14,0,0-.07,0-.11Z"/><path class="cls-1" d="M159.33,36.94l-.15.05,0-.25s.13,0,.16,0S159.33,36.89,159.33,36.94Z"/><path class="cls-1" d="M156.39,37c.12.05.29.08.31.15s-.06.23-.1.35a1.31,1.31,0,0,1-.35-.19S156.34,37.16,156.39,37Z"/><path class="cls-1" d="M157.28,39.84l-.21-.26.42-.18c0,.1.13.24.1.28S157.39,39.79,157.28,39.84Z"/><path class="cls-1" d="M22.4,40.22l-.25.09s-.08-.12-.06-.15a1.7,1.7,0,0,1,.17-.23Z"/><path class="cls-1" d="M166.39,49.81a3.08,3.08,0,0,1,.26-.2.24.24,0,0,1,.16.07,1.35,1.35,0,0,1,0,.29Z"/><path class="cls-1" d="M111.75,3.76a.67.67,0,0,1,.31-.14s.1.14.16.22c-.1,0-.19.13-.28.12S111.81,3.83,111.75,3.76Z"/><path class="cls-1" d="M4.93,57.45l-.5.46a4.43,4.43,0,0,1-.29-.46s.17-.18.25-.17A3,3,0,0,1,4.93,57.45Z"/><path class="cls-1" d="M3.39,61.51c-.08-.09-.18-.16-.19-.24s.12-.13.19-.2.11.09.1.14A1.5,1.5,0,0,1,3.39,61.51Z"/><path class="cls-1" d="M3.42,66.38l-.2.27c-.06-.09-.16-.18-.17-.28s.11-.15.17-.22S3.35,66.3,3.42,66.38Z"/><path class="cls-1" d="M1.72,74.38c.07.15.16.26.16.36s-.14.13-.22.2a.9.9,0,0,1-.13-.31C1.53,74.55,1.64,74.48,1.72,74.38Z"/><path class="cls-1" d="M173.85,79.6l-.1.13s-.09-.09-.09-.14.06-.07.1-.11Z"/><path class="cls-1" d="M168.65,102.58a.35.35,0,0,1-.08.13s-.08,0-.12,0l.12-.22Z"/><path class="cls-1" d="M71.11,166.08l.29.19c-.1.06-.19.16-.29.17s-.18-.11-.27-.17Z"/><path class="cls-1" d="M28.71,24.2c.06.09.17.19.16.28s-.13.19-.19.29c-.06-.1-.16-.21-.16-.31S28.64,24.29,28.71,24.2Z"/><path class="cls-1" d="M167.42,120.59l-.06.13-.15-.17.13-.1Z"/><path class="cls-1" d="M9.83,121.5s0-.11.05-.11a.44.44,0,0,1,.15,0s0,.11,0,.11Z"/><path class="cls-1" d="M126.27,14l-.16-.06a.48.48,0,0,1,.09-.16s.09,0,.14.06Z"/><path class="cls-1" d="M64.65,161.5l-.51.25c0-.11-.14-.29-.1-.33a2.16,2.16,0,0,1,.44-.27Z"/><path class="cls-1" d="M83.18.31,83,.24l.2-.17.12.14Z"/><path class="cls-1" d="M154.19,132.54l-.27-.19c.1-.06.2-.16.3-.16s.18.11.27.17Z"/><path class="cls-1" d="M74.91,168.93c-.09.08-.16.2-.25.21s-.14-.12-.2-.21.08-.13.11-.12A1.74,1.74,0,0,1,74.91,168.93Z"/><path class="cls-1" d="M150.81,138.27c0,.06.11.16.1.17a1,1,0,0,1-.27.17s-.08-.09-.12-.14Z"/><path class="cls-1" d="M31.42,25.42s.09,0,.11,0,0,.08,0,.12l-.23,0Z"/></g></g></svg>